<svg xmlns="http://www.w3.org/2000/svg" xmlns:xlink="http://www.w3.org/1999/xlink" xmlns:lucid="lucid" width="1838.83" height="480"><g transform="translate(80 -460)" lucid:page-tab-id="0_0"><path d="M1278.83 586c0-3.3 2.7-6 6-6h448c3.32 0 6 2.7 6 6v168.26c0 3.3-2.68 6-6 6h-448c-3.3 0-6-2.7-6-6z" stroke="#333" stroke-width="5" fill="#b2d6ef"/><path d="M1258.83 606c0-3.3 2.7-6 6-6h448c3.32 0 6 2.7 6 6v186.76c0 3.3-2.68 6-6 6h-448c-3.3 0-6-2.7-6-6z" stroke="#333" stroke-width="5" fill="#b2d6ef"/><path d="M-20 586c0-3.3 2.7-6 6-6h528c3.3 0 6 2.7 6 6v188.26c0 3.3-2.7 6-6 6H-14c-3.3 0-6-2.7-6-6z" stroke="#333" stroke-width="5" fill="#c7e8ac"/><path d="M-42.22 606c0-3.3 2.68-6 6-6H494c3.3 0 6 2.7 6 6v188c0 3.3-2.7 6-6 6H-36.22c-3.32 0-6-2.7-6-6z" stroke="#333" stroke-width="5" fill="#c7e8ac"/><path d="M800 826c0-3.3 2.7-6 6-6h188c3.3 0 6 2.7 6 6v88c0 3.3-2.7 6-6 6H806c-3.3 0-6-2.7-6-6z" stroke="#333" stroke-width="5" fill="#ffbbb1"/><use xlink:href="#a" transform="matrix(1,0,0,1,805,825) translate(0 36.43055555555556)"/><use xlink:href="#b" transform="matrix(1,0,0,1,805,825) translate(0 65.76388888888889)"/><path d="M680 626c0-3.3 2.7-6 6-6h388c3.3 0 6 2.7 6 6v148c0 3.3-2.7 6-6 6H686c-3.3 0-6-2.7-6-6z" stroke="#333" stroke-width="5" fill="#ccc"/><use xlink:href="#c" transform="matrix(1,0,0,1,685,625) translate(0 19.555555555555557)"/><use xlink:href="#b" transform="matrix(1,0,0,1,685,625) translate(135.73456790123458 19.555555555555557)"/><path d="M1238.83 626c0-3.3 2.7-6 6-6h448c3.32 0 6 2.7 6 6v188c0 3.3-2.68 6-6 6h-448c-3.3 0-6-2.7-6-6z" stroke="#333" stroke-width="5" fill="#b2d6ef"/><use xlink:href="#d" transform="matrix(1,0,0,1,1243.8333333333335,625) translate(0 24.88888888888888)"/><path d="M-60 626c0-3.3 2.7-6 6-6h528c3.3 0 6 2.7 6 6v188c0 3.3-2.7 6-6 6H-54c-3.3 0-6-2.7-6-6z" stroke="#333" stroke-width="5" fill="#c7e8ac"/><use xlink:href="#e" transform="matrix(1,0,0,1,-55,625) translate(0 24.888888888888886)"/><path d="M800 506c0-3.3 2.7-6 6-6h188c3.3 0 6 2.7 6 6v68c0 3.3-2.7 6-6 6H806c-3.3 0-6-2.7-6-6z" stroke="#333" stroke-width="5" fill="#ffbbb1"/><use xlink:href="#f" transform="matrix(1,0,0,1,805,505) translate(0 26.118055555555557)"/><use xlink:href="#b" transform="matrix(1,0,0,1,805,505) translate(0 55.45138888888889)"/><path d="M795 540H338.56c-3.32 0-6 2.7-6 6v106.9" stroke="#5e5e5e" stroke-width="5" fill="none"/><path d="M797.5 542.5h-2.56v-5h2.56z" fill="#5e5e5e"/><path d="M332.56 669.67l-4.64-14.27h9.27z" stroke="#5e5e5e" stroke-width="5" fill="#5e5e5e"/><path d="M1558.83 689.5V546c0-3.3-2.68-6-6-6h-525.47" stroke="#5e5e5e" stroke-width="5" fill="none"/><path d="M1561.33 692h-5v-2.56h5z" fill="#5e5e5e"/><path d="M1010.6 540l14.26-4.64v9.28z" stroke="#5e5e5e" stroke-width="5" fill="#5e5e5e"/><path d="M-2.22 686.26c0-3.32 2.68-6 6-6h208c3.3 0 6 2.68 6 6v43.9c0 3.32-2.7 6-6 6h-208c-3.32 0-6-2.68-6-6z" stroke="#333" stroke-width="5" fill="#fff"/><path d="M-22.22 714.26c0-3.3 2.68-6 6-6h205.78c3.3 0 6 2.7 6 6v48c0 3.32-2.7 6-6 6H-16.22c-3.32 0-6-2.68-6-6z" stroke="#333" stroke-width="5" fill="#fff"/><path d="M-42.22 737.35c0-3.3 2.68-6 6-6h208c3.3 0 6 2.7 6 6v55.4c0 3.32-2.7 6-6 6h-208c-3.32 0-6-2.68-6-6z" stroke="#333" stroke-width="5" fill="#fff"/><use xlink:href="#g" transform="matrix(1,0,0,1,-37.22222222222223,736.3487654320986) translate(0 34.05555555555556)"/><path d="M238.2 749.34l-10.53-24.17" stroke="#333" stroke-width="2" fill="none"/><path d="M238.6 752.76l-1.32-3.04 1.33-.58z" fill="#333"/><path d="M221.57 711.18l9.95 11.22-8.5 3.7z" stroke="#333" stroke-width="2" fill="#333"/><path d="M237.64 750.02l-28.03-6.92" stroke="#333" stroke-width="2" fill="none"/><path d="M238.6 749.23v2.06l-1.22-.32.48-1.94z" fill="#333"/><path d="M194.8 739.44l14.95-1.08-2.22 9z" stroke="#333" stroke-width="2" fill="#333"/><path d="M237.64 750.5l-39.43 10" stroke="#333" stroke-width="2" fill="none"/><path d="M238.6 751.3l-.74.18-.5-1.94 1.25-.32z" fill="#333"/><path d="M183.4 764.26l12.7-8 2.28 8.98z" stroke="#333" stroke-width="2" fill="#333"/><path d="M210 825v39c0 3.3 2.7 6 6 6h556.64" stroke="#5e5e5e" stroke-width="5" fill="none"/><path d="M212.5 825.06h-5v-2.56h5z" fill="#5e5e5e"/><path d="M789.4 870l-14.26 4.64v-9.28z" stroke="#5e5e5e" stroke-width="5" fill="#5e5e5e"/><path d="M1258.83 701.92c0-3.32 2.7-6 6-6h148c3.32 0 6 2.68 6 6v62c0 3.3-2.68 6-6 6h-148c-3.3 0-6-2.7-6-6z" stroke="#333" stroke-width="5" fill="#fff"/><use xlink:href="#h" transform="matrix(1,0,0,1,1263.8333333333335,700.9166666666665) translate(4.212962962962962 35.55555555555556)"/><use xlink:href="#i" transform="matrix(1,0,0,1,1263.8333333333335,700.9166666666665) translate(95.67592592592592 35.55555555555556)"/><path d="M1005 870h327.83c3.32 0 6-2.7 6-6v-66.73" stroke="#5e5e5e" stroke-width="5" fill="none"/><path d="M1005.06 872.5h-2.56v-5h2.56z" fill="#5e5e5e"/><path d="M1338.83 780.5l4.64 14.27h-9.27z" stroke="#5e5e5e" stroke-width="5" fill="#5e5e5e"/><path d="M1423.83 732.92h27.65" stroke="#333" stroke-width="5" fill="none"/><path d="M1423.9 735.42h-2.57v-5h2.57z" fill="#333"/><path d="M1468.24 732.92l-14.26 4.63v-9.27z" stroke="#333" stroke-width="5" fill="#333"/><path d="M920 678.83c0-3.3 2.7-6 6-6h109.33c3.32 0 6 2.7 6 6v62c0 3.32-2.68 6-6 6H926c-3.3 0-6-2.68-6-6z" stroke="#333" stroke-width="5" fill="#fff"/><use xlink:href="#j" transform="matrix(1,0,0,1,925,677.8333333333333) translate(3.7839506172839563 35.55555555555556)"/><path d="M720 680.5c0-3.3 2.7-6 6-6h128c3.3 0 6 2.7 6 6v62c0 3.3-2.7 6-6 6H726c-3.3 0-6-2.7-6-6z" stroke="#333" stroke-width="5" fill="#fff"/><use xlink:href="#k" transform="matrix(1,0,0,1,725,679.4999999999999) translate(11.527777777777786 19.555555555555557)"/><use xlink:href="#l" transform="matrix(1,0,0,1,725,679.4999999999999) translate(67.00308641975309 19.555555555555557)"/><use xlink:href="#m" transform="matrix(1,0,0,1,725,679.4999999999999) translate(21.61111111111112 48.88888888888889)"/><path d="M484.5 720.04l5.7.1m7.6.16l11.4.22m7.6.27l11.4.7m7.58.47h.18l11.16 1.2m7.56.78l.83.1 10.5 1.4m7.53 1l11.3 1.52m7.54 1l11.3 1.52m7.54 1l11.3 1.5m7.6.6l11.37.7m7.6.35l5.7.1" stroke="#333" stroke-width="4" fill="none"/><path d="M484.6 718.04l-.1 4-2-.04v-4z" fill="#333"/><path d="M671.03 735.07l-14.35 4.36.18-9.27z" stroke="#333" stroke-width="4" fill="#333"/><path d="M1084.5 731.96l6.5-.12m8.64-.17l7.56-.15 5.4-.33m8.63-.55l3.42-.2 9.5-1m8.6-1l12.85-1.72m8.57-1.15l12.86-1.72m8.57-1.15l8.58-1.14 4.3-.26m8.64-.54l4.5-.28 1.98-.04" stroke="#000" stroke-width="4" fill="none"/><path d="M1084.6 733.96l-2.1.04v-4l2-.04z"/><path d="M1229.86 720.13l-14.17 4.9-.2-9.26z" stroke="#000" stroke-width="4"/><path d="M1234.33 675.04l-5.63.1m-7.5.18l-11.2.7h-.03m-7.47.78l-2.3.24-8.75 1.3h-.1m-7.37 1.42l-.95.18-9.4 2.2-.6.18m-7.26 1.93l-10.87 2.9m-7.25 1.95l-10.88 2.9m-7.35 1.48l-2.04.4-8.74 1.28-.35.03m-7.47.77l-2 .2-3.6.24" stroke="#5e5e5e" stroke-width="4" fill="none"/><path d="M1236.33 677l-2 .04-.1-4 2.1-.04z" fill="#5e5e5e"/><path d="M1088.97 696.97l14.1-5.13.32 9.27z" stroke="#5e5e5e" stroke-width="4" fill="#5e5e5e"/><path d="M675.5 699.96l-5.86-.12m-7.82-.25l-9.38-.6-2.3-.23m-7.8-.82l-8.7-1.3-2.87-.53m-7.66-1.57l-5.44-1.27-5.9-1.65m-7.46-2.34l-3-1-8.03-3m-7.3-2.8l-10.9-4.28m-7.3-2.86l-9.08-3.58-1.87-.6m-7.44-2.4l-7.06-1.96-4.3-1m-7.64-1.62l-4.04-.77-7.53-1.1m-7.77-.88l-3.5-.36-2.34-.16" stroke="#5e5e5e" stroke-width="4" fill="none"/><path d="M677.5 698v4l-2.1-.04.1-4z" fill="#5e5e5e"/><path d="M488.97 660.34l14.43-4.1-.35 9.26z" stroke="#5e5e5e" stroke-width="4" fill="#5e5e5e"/><path d="M915 709.83l-50-.1" stroke="#333" stroke-width="5" fill="none"/><path d="M917.5 707.33v5h-2.57v-5zM865.07 707.23v5h-2.57v-5z" fill="#333"/><path d="M1090.67 756.08c0-3.3 2.68-6 6-6h128c3.3 0 6 2.7 6 6v48c0 3.32-2.7 6-6 6h-128c-3.32 0-6-2.68-6-6z" stroke="#000" stroke-opacity="0" stroke-width="3" fill="#fff" fill-opacity="0"/><use xlink:href="#n" transform="matrix(1,0,0,1,1095.6666666666279,755.0827620408859) translate(38.074074074074076 21.333333333333332)"/><use xlink:href="#o" transform="matrix(1,0,0,1,1095.6666666666279,755.0827620408859) translate(-3.037037037037024 53.33333333333333)"/><path d="M500 866c0-3.3 2.7-6 6-6h117.33c3.32 0 6 2.7 6 6v48c0 3.3-2.68 6-6 6H506c-3.3 0-6-2.7-6-6z" stroke="#000" stroke-opacity="0" stroke-width="3" fill="#fff" fill-opacity="0"/><use xlink:href="#p" transform="matrix(1,0,0,1,505,865) translate(34.85185185185186 30.70833333333333)"/><path d="M1090.67 600.5c0-3.3 2.68-6 6-6H1214c3.3 0 6 2.7 6 6v48c0 3.3-2.7 6-6 6h-117.33c-3.32 0-6-2.7-6-6z" stroke="#000" stroke-opacity="0" stroke-width="3" fill="#fff" fill-opacity="0"/><use xlink:href="#n" transform="matrix(1,0,0,1,1095.6666666666279,599.4999999999999) translate(33.074074074074076 21.333333333333332)"/><use xlink:href="#q" transform="matrix(1,0,0,1,1095.6666666666279,599.4999999999999) translate(14.222222222222236 53.33333333333333)"/><path d="M540 757.33c0-3.3 2.7-6 6-6h117.33c3.32 0 6 2.7 6 6v48c0 3.32-2.68 6-6 6H546c-3.3 0-6-2.68-6-6z" stroke="#000" stroke-opacity="0" stroke-width="3" fill="#fff" fill-opacity="0"/><use xlink:href="#n" transform="matrix(1,0,0,1,545,756.3333333333331) translate(33.074074074074076 21.333333333333332)"/><use xlink:href="#q" transform="matrix(1,0,0,1,545,756.3333333333331) translate(14.222222222222236 53.33333333333333)"/><path d="M530 586c0-3.3 2.7-6 6-6h128c3.3 0 6 2.7 6 6v48c0 3.3-2.7 6-6 6H536c-3.3 0-6-2.7-6-6z" stroke="#000" stroke-opacity="0" stroke-width="3" fill="#fff" fill-opacity="0"/><use xlink:href="#n" transform="matrix(1,0,0,1,535,585) translate(38.074074074074076 21.333333333333332)"/><use xlink:href="#o" transform="matrix(1,0,0,1,535,585) translate(-3.037037037037024 53.33333333333333)"/><path d="M1120 866c0-3.3 2.7-6 6-6h117.33c3.32 0 6 2.7 6 6v48c0 3.3-2.68 6-6 6H1126c-3.3 0-6-2.7-6-6z" stroke="#000" stroke-opacity="0" stroke-width="3" fill="#fff" fill-opacity="0"/><use xlink:href="#p" transform="matrix(1,0,0,1,1125,865) translate(34.85185185185186 30.70833333333333)"/><path d="M960 520c2.48 0 4.88.16 7.2.44 2.32.32 4.44.76 6.4 1.32 1.92.56 3.48 1.32 4.64 2.28 1.16.96 1.76 2.04 1.76 3.24v25.44c0 1.2-.6 2.28-1.76 3.24-1.16.96-2.72 1.72-4.64 2.28-1.96.56-4.08 1-6.4 1.32-2.32.28-4.72.44-7.2.44-2.48 0-4.88-.16-7.2-.44-2.32-.32-4.44-.76-6.4-1.32-1.92-.56-3.48-1.32-4.64-2.28-1.16-.96-1.76-2.04-1.76-3.24v-25.44c0-1.2.6-2.28 1.76-3.24 1.16-.96 2.72-1.72 4.64-2.28 1.96-.56 4.08-1 6.4-1.32 2.32-.28 4.72-.44 7.2-.44zm16.36 32.68v-8.28c-1.84.96-4.24 1.68-7.16 2.16-2.92.48-6 .72-9.2.72-3.2 0-6.28-.24-9.2-.72-2.92-.48-5.32-1.2-7.16-2.16v8.32c.04.2.32.48.76.76s1.12.6 2.08.96c.92.32 2 .64 3.24.92 1.2.28 2.72.52 4.56.72 1.8.2 3.72.28 5.72.28 2 0 3.92-.08 5.72-.28 1.84-.2 3.36-.44 4.56-.72 1.24-.28 2.32-.6 3.24-.96.96-.32 1.64-.64 2.08-.92.44-.32.72-.56.76-.8zm0-12.72v-8.28c-1.84.96-4.24 1.64-7.16 2.12-2.92.52-6 .76-9.2.76-3.2 0-6.28-.24-9.2-.76-2.92-.48-5.32-1.16-7.16-2.12V540c.04.2.32.44.76.76.44.28 1.12.6 2.08.96.92.32 2 .64 3.24.92 1.2.28 2.72.52 4.56.72 1.8.2 3.72.28 5.72.28 2 0 3.92-.12 5.72-.28 1.84-.2 3.36-.44 4.56-.72 1.24-.28 2.32-.6 3.24-.92.92-.36 1.64-.68 2.08-.96.44-.32.72-.56.76-.8zM960 523.64c-2 0-3.88.08-5.68.28-1.8.2-3.32.44-4.56.72-1.2.28-2.28.56-3.2.92-.96.32-1.64.64-2.12.92-.44.32-.72.56-.8.8.08.2.36.48.8.76.48.32 1.16.64 2.12.96.92.32 2 .64 3.2.92 1.24.28 2.76.52 4.56.72 1.8.16 3.68.28 5.68.28 2 0 3.88-.12 5.68-.28 1.8-.2 3.32-.44 4.56-.72 1.2-.28 2.28-.6 3.2-.92.96-.32 1.64-.64 2.12-.96.44-.28.72-.56.8-.76-.08-.24-.36-.48-.8-.8-.48-.28-1.16-.6-2.12-.92-.92-.36-2-.64-3.2-.92-1.24-.28-2.76-.52-4.56-.72-1.8-.2-3.68-.28-5.68-.28zM960 870c2.48 0 4.88.16 7.2.44 2.32.32 4.44.76 6.4 1.32 1.92.56 3.48 1.32 4.64 2.28 1.16.96 1.76 2.04 1.76 3.24v25.44c0 1.2-.6 2.28-1.76 3.24-1.16.96-2.72 1.72-4.64 2.28-1.96.56-4.08 1-6.4 1.32-2.32.28-4.72.44-7.2.44-2.48 0-4.88-.16-7.2-.44-2.32-.32-4.44-.76-6.4-1.32-1.92-.56-3.48-1.32-4.64-2.28-1.16-.96-1.76-2.04-1.76-3.24v-25.44c0-1.2.6-2.28 1.76-3.24 1.16-.96 2.72-1.72 4.64-2.28 1.96-.56 4.08-1 6.4-1.32 2.32-.28 4.72-.44 7.2-.44zm16.36 32.68v-8.28c-1.84.96-4.24 1.68-7.16 2.16-2.92.48-6 .72-9.2.72-3.2 0-6.28-.24-9.2-.72-2.92-.48-5.32-1.2-7.16-2.16v8.32c.04.2.32.48.76.76s1.12.6 2.08.96c.92.32 2 .64 3.24.92 1.2.28 2.72.52 4.56.72 1.8.2 3.72.28 5.72.28 2 0 3.92-.08 5.72-.28 1.84-.2 3.36-.44 4.56-.72 1.24-.28 2.32-.6 3.24-.96.96-.32 1.64-.64 2.08-.92.44-.32.72-.56.76-.8zm0-12.72v-8.28c-1.84.96-4.24 1.64-7.16 2.12-2.92.52-6 .76-9.2.76-3.2 0-6.28-.24-9.2-.76-2.92-.48-5.32-1.16-7.16-2.12V890c.04.2.32.44.76.76.44.28 1.12.6 2.08.96.92.32 2 .64 3.24.92 1.2.28 2.72.52 4.56.72 1.8.2 3.72.28 5.72.28 2 0 3.92-.12 5.72-.28 1.84-.2 3.36-.44 4.56-.72 1.24-.28 2.32-.6 3.24-.92.92-.36 1.64-.68 2.08-.96.44-.32.72-.56.76-.8zM960 873.64c-2 0-3.88.08-5.68.28-1.8.2-3.32.44-4.56.72-1.2.28-2.28.56-3.2.92-.96.32-1.64.64-2.12.92-.44.32-.72.56-.8.8.08.2.36.48.8.76.48.32 1.16.64 2.12.96.92.32 2 .64 3.2.92 1.24.28 2.76.52 4.56.72 1.8.16 3.68.28 5.68.28 2 0 3.88-.12 5.68-.28 1.8-.2 3.32-.44 4.56-.72 1.2-.28 2.28-.6 3.2-.92.96-.32 1.64-.64 2.12-.96.44-.28.72-.56.8-.76-.08-.24-.36-.48-.8-.8-.48-.28-1.16-.6-2.12-.92-.92-.36-2-.64-3.2-.92-1.24-.28-2.76-.52-4.56-.72-1.8-.2-3.68-.28-5.68-.28z" stroke="#000" stroke-opacity="0" stroke-width=".29" fill="#333"/><path d="M1180 486c0-3.3 2.7-6 6-6h117.33c3.32 0 6 2.7 6 6v48c0 3.3-2.68 6-6 6H1186c-3.3 0-6-2.7-6-6z" stroke="#000" stroke-opacity="0" stroke-width="3" fill="#fff" fill-opacity="0"/><use xlink:href="#r" transform="matrix(1,0,0,1,1185,485) translate(-61.8888888888888 30.333333333333332)"/><path d="M565.33 486c0-3.3 2.7-6 6-6h117.34c3.3 0 6 2.7 6 6v48c0 3.3-2.7 6-6 6H571.33c-3.3 0-6-2.7-6-6z" stroke="#000" stroke-opacity="0" stroke-width="3" fill="#fff" fill-opacity="0"/><use xlink:href="#s" transform="matrix(1,0,0,1,570.3333333333721,485) translate(-49.29629629629622 30.333333333333332)"/><path d="M160 768.5c0-11.04-8.96-20-20-20s-20 8.96-20 20c0 10.16 7.64 18.6 17.52 19.8.56.12 1.24.2 2.04.2.24 0 .44 0 .64-.04 10.96-.12 19.8-9 19.8-19.96zm-2.84.28c-.08-1-.2-2-.4-2.92v-.96c.24 1.16.4 2.36.4 3.6v.28zm-34.32-.28c0-1.24.16-2.4.4-3.56.72.8 2.48.8 2.88-.4.76.44 1.8.52 1.8 1.44 0 3 .12 6.2 2.84 6.24.08 0 1.52.56 2.2 2.32.24.64 1.16 0 2.2 0 .52 0 0 .88 0 2.76 0 1.84 4 4.72 4 4.72 0 1.24.04 2.24.12 3.04-.88-.04-1.64.08-2.24.28-8.08-1.4-14.2-8.4-14.2-16.84zm21.4 16.6c-.12-.44-.48-.68-1.2-.48.56-2.44.84-3.76 2-4.8 1.72-1.48.2-3.12-1.08-2.92-1.04.12-.36-1.28-1.28-1.36-.92-.08-2.12-1.92-3.44-2.52-.68-.36-1.4-1.24-2.48-1.28-.92-.04-2.32.8-2.32.16 0-2.08-.24-3.6-.28-4.2-.04-.48-.32-.16 1-.12.68.04.36-1.4 1.04-1.44.68-.08 2.32.64 2.72.36.4-.28 2.84 6.4 2.84 1.08 0-.64-.32-1.72 0-2.32 1.28-2.36 2.48-4.28 2.4-4.56-.08-.16-1.32-.28-2.36.04-.32.12.12.64-.36.76-1.84.44-3.44-.48-2.88-1.36.56-.88 2.68-.36 2.88-2.16.08-1 .16-2.16.24-3.04 2.44.4 2.2-3.2-1.48-3.6 7.4.12 13.68 4.88 16 11.52-.12-.08-.24-.16-.4-.16-1.12-2.8-3.8-.76-2.88 1.68-4.88 3.72-3.64 6.36-2.04 7.84.84.8 1.64 2 2.16 2.84-.56 1.68 2.12 1 3.44-1.84-1.68 5.84-6.36 10.36-12.24 11.88z" stroke="#000" stroke-opacity="0" stroke-width=".29" fill="#333"/><path d="M278.9 686.26c0-3.32 2.68-6 6-6h168c3.3 0 6 2.68 6 6v48c0 3.3-2.7 6-6 6h-168c-3.32 0-6-2.7-6-6z" stroke="#333" stroke-width="5" fill="#fff"/><path d="M258.9 706.26c0-3.32 2.68-6 6-6h168c3.3 0 6 2.68 6 6v48c0 3.3-2.7 6-6 6h-168c-3.32 0-6-2.7-6-6z" stroke="#333" stroke-width="5" fill="#fff"/><path d="M241.1 726.26c0-3.32 2.7-6 6-6h168c3.32 0 6 2.68 6 6v48c0 3.3-2.68 6-6 6h-168c-3.3 0-6-2.7-6-6z" stroke="#333" stroke-width="5" fill="#fff"/><g><use xlink:href="#t" transform="matrix(1,0,0,1,246.1111111111111,725.256172839506) translate(1.7870370370370239 28.930555555555557)"/></g><path d="M1518.83 660.5c0-3.3 2.7-6 6-6h148c3.32 0 6 2.7 6 6v64.83c0 3.32-2.68 6-6 6h-148c-3.3 0-6-2.68-6-6z" stroke="#333" stroke-width="5" fill="#fff"/><path d="M1498.83 680.5c0-3.3 2.7-6 6-6h148c3.32 0 6 2.7 6 6v64.83c0 3.32-2.68 6-6 6h-148c-3.3 0-6-2.68-6-6z" stroke="#333" stroke-width="5" fill="#fff"/><path d="M1478.83 700.5c0-3.3 2.7-6 6-6h148c3.32 0 6 2.7 6 6v64.83c0 3.32-2.68 6-6 6h-148c-3.3 0-6-2.68-6-6z" stroke="#333" stroke-width="5" fill="#fff"/><g><use xlink:href="#u" transform="matrix(1,0,0,1,1483.8333333333335,699.4999999999999) translate(0 38.39930555555556)"/><use xlink:href="#v" transform="matrix(1,0,0,1,1483.8333333333335,699.4999999999999) translate(6.111111111111111 38.39930555555556)"/></g><path d="M1595.7 730.73l-15.03-6.9c-.2-.1-.44-.15-.68-.15-.73.07-1.2.64-1.17 1.28v15.34c0 .4.24.74.6.96l15 8.6c.2.15.4.2.64.22.68 0 1.24-.53 1.24-1.17v-17.1c.05-.47-.2-.83-.6-1.07zm22.6-7.1c-.4-.16-.83-.16-1.2 0l-17.47 7.1c-.48.2-.76.6-.76 1.06v17.14c0 .22.04.4.16.57.36.55 1.12.76 1.72.44l17.44-9.22c.4-.2.63-.56.63-1v-15.08c0-.4-.2-.75-.52-1zm-2.07-2.9c-.04-.5-.36-.9-.84-1.07l-15.77-5.1c-.28-.1-.52-.1-.76 0L1582 720c-.33.1-.57.32-.73.6-.32.57-.04 1.25.56 1.53l15 6.95c.2.07.36.1.56.1.15.05.3.05.5 0l17.5-7.14c.6-.17.95-.74.83-1.27z" stroke="#333" stroke-width=".29" fill="#333"/><defs><path fill="#333" d="M140-221c-55 0-64 47-64 103S8-14 140-14c56 0 64-48 64-104s-9-103-64-103zm0 225C61 4 18-36 18-118c0-81 41-120 122-120 80 0 122 39 122 120C262-36 219 4 140 4" id="w"/><path fill="#333" d="M107-230c-31-13-29 30-29 65h34v18H78v131l27 4V0H10v-12l18-4v-131H3v-12l25-7c-8-66 31-98 95-84v39h-11" id="x"/><path fill="#333" d="M76-16l18 4V0H7v-12l18-4v-218l-17-4v-12h68v234" id="y"/><path fill="#333" d="M77-16l18 4V0H8v-12l18-4v-133l-17-5v-11h68v149zM51-196c-16 0-27-10-27-27s10-27 27-27 27 11 27 27c0 17-10 27-27 27" id="z"/><path fill="#333" d="M127-114c3-31-26-38-50-25v123l15 4V0H10v-12l16-4v-133l-16-5v-11h64l2 14c31-23 102-32 102 30v105l17 4V0h-82v-12l14-4v-98" id="A"/><path fill="#333" d="M12-83c0-55 22-85 75-86 52-1 66 33 63 88H64c-1 37 6 64 44 63 14 0 28-4 39-6 3 28-28 25-55 27-57 4-80-31-80-86zm90-17c2-26 0-63-27-48-10 9-11 28-11 48h38" id="B"/><path fill="#333" d="M92-20c74 11 92-29 92-98 0-66-23-103-92-98v196zm150-99C242 9 136 6 6 0v-13l31-5v-200l-31-5v-13h112c81 0 124 34 124 117" id="C"/><path fill="#333" d="M31-163c51-5 127-20 127 40v107l17 4V0h-61l-4-13C82 13 12 12 12-46c0-51 46-52 95-53 9-45-22-69-57-44l-7 20H31v-40zM62-47c0 30 26 34 45 23v-59c-28 0-45 6-45 36" id="D"/><path fill="#333" d="M78-41c-2 24 21 26 40 20C122 3 98 2 77 4 5 10 32-84 27-147H6v-11l25-7 21-38h26v38h35v18H78v106" id="E"/><path fill="#333" d="M102-142c-14-17-68-15-54 18 24 26 83 17 83 72 0 62-72 62-120 47v-45h12c4 23 16 37 43 37 35 0 39-37 9-46-31-9-65-19-64-61 0-52 59-55 108-45v43h-11" id="F"/><g id="a"><use transform="matrix(0.06790123456790123,0,0,0.06790123456790123,0,0)" xlink:href="#w"/><use transform="matrix(0.06790123456790123,0,0,0.06790123456790123,19.012345679012345,0)" xlink:href="#x"/><use transform="matrix(0.06790123456790123,0,0,0.06790123456790123,27.09259259259259,0)" xlink:href="#x"/><use transform="matrix(0.06790123456790123,0,0,0.06790123456790123,35.172839506172835,0)" xlink:href="#y"/><use transform="matrix(0.06790123456790123,0,0,0.06790123456790123,41.96296296296296,0)" xlink:href="#z"/><use transform="matrix(0.06790123456790123,0,0,0.06790123456790123,48.75308641975309,0)" xlink:href="#A"/><use transform="matrix(0.06790123456790123,0,0,0.06790123456790123,62.333333333333336,0)" xlink:href="#B"/><use transform="matrix(0.06790123456790123,0,0,0.06790123456790123,73.12962962962965,0)" xlink:href="#C"/><use transform="matrix(0.06790123456790123,0,0,0.06790123456790123,90.71604938271605,0)" xlink:href="#D"/><use transform="matrix(0.06790123456790123,0,0,0.06790123456790123,102.93827160493828,0)" xlink:href="#E"/><use transform="matrix(0.06790123456790123,0,0,0.06790123456790123,111.01851851851853,0)" xlink:href="#D"/><use transform="matrix(0.06790123456790123,0,0,0.06790123456790123,123.24074074074076,0)" xlink:href="#F"/><use transform="matrix(0.06790123456790123,0,0,0.06790123456790123,132.74691358024694,0)" xlink:href="#B"/><use transform="matrix(0.06790123456790123,0,0,0.06790123456790123,143.54320987654324,0)" xlink:href="#E"/></g><path fill="#333" d="M185-72C185 13 82 14 19-9v-63h16c2 37 21 58 61 58 46 0 69-51 31-71-42-23-106-23-106-90 0-69 87-70 148-56v56h-16l-7-32c-26-25-110-13-82 35 39 34 121 26 121 100" id="G"/><path fill="#333" d="M132-132c-21 0-37 9-50 16v100l26 4V0H10v-12l21-4v-133l-21-5v-11h69l2 34c17-18 35-41 71-40v61c-17 3-14-14-20-22" id="H"/><path fill="#333" d="M168-150L102 4H81L12-149c-7-2-15-4-12-16h85v11l-20 5 42 94 38-94-19-5v-11h54v11" id="I"/><g id="b"><use transform="matrix(0.06790123456790123,0,0,0.06790123456790123,0,0)" xlink:href="#G"/><use transform="matrix(0.06790123456790123,0,0,0.06790123456790123,13.580246913580247,0)" xlink:href="#B"/><use transform="matrix(0.06790123456790123,0,0,0.06790123456790123,24.376543209876544,0)" xlink:href="#H"/><use transform="matrix(0.06790123456790123,0,0,0.06790123456790123,35.17283950617284,0)" xlink:href="#I"/><use transform="matrix(0.06790123456790123,0,0,0.06790123456790123,47.39506172839506,0)" xlink:href="#B"/><use transform="matrix(0.06790123456790123,0,0,0.06790123456790123,58.19135802469136,0)" xlink:href="#H"/></g><path fill="#333" d="M76-116c0 86 71 126 135 84l6-39h16l-1 60C138 21 18 1 18-115c0-117 106-141 210-112l1 57h-16l-5-34c-13-9-32-16-54-16-60 0-78 42-78 104" id="J"/><path fill="#333" d="M90-170c54-1 76 32 76 87 1 56-23 87-77 87-53 0-75-32-75-87s23-86 76-87zM89-14c28-2 26-38 26-69s3-69-26-69c-27 0-24 39-24 69s-3 66 24 69" id="K"/><path fill="#333" d="M15-82c-4-69 47-101 113-83l-1-69-17-4v-12h68v234l18 4V0h-63l-4-9C77 23 5-9 15-82zm112-66c-43-16-64 17-61 65 2 33 3 67 32 67 12 0 22-3 29-8v-124" id="L"/><g id="c"><use transform="matrix(0.06790123456790123,0,0,0.06790123456790123,0,0)" xlink:href="#J"/><use transform="matrix(0.06790123456790123,0,0,0.06790123456790123,17.586419753086417,0)" xlink:href="#K"/><use transform="matrix(0.06790123456790123,0,0,0.06790123456790123,29.80864197530864,0)" xlink:href="#K"/><use transform="matrix(0.06790123456790123,0,0,0.06790123456790123,42.03086419753086,0)" xlink:href="#H"/><use transform="matrix(0.06790123456790123,0,0,0.06790123456790123,52.82716049382716,0)" xlink:href="#L"/><use transform="matrix(0.06790123456790123,0,0,0.06790123456790123,66.4074074074074,0)" xlink:href="#z"/><use transform="matrix(0.06790123456790123,0,0,0.06790123456790123,73.19753086419753,0)" xlink:href="#A"/><use transform="matrix(0.06790123456790123,0,0,0.06790123456790123,86.77777777777777,0)" xlink:href="#D"/><use transform="matrix(0.06790123456790123,0,0,0.06790123456790123,99,0)" xlink:href="#E"/><use transform="matrix(0.06790123456790123,0,0,0.06790123456790123,107.08024691358025,0)" xlink:href="#K"/><use transform="matrix(0.06790123456790123,0,0,0.06790123456790123,119.30246913580248,0)" xlink:href="#H"/></g><path fill="#333" d="M128-223l-36 5v199l103-3 14-49h16l-7 71H6v-13l30-5v-200l-30-5v-13h122v13" id="M"/><g id="d"><use transform="matrix(0.0864197530864197,0,0,0.0864197530864197,0,0)" xlink:href="#M"/><use transform="matrix(0.0864197530864197,0,0,0.0864197530864197,20.74074074074073,0)" xlink:href="#B"/><use transform="matrix(0.0864197530864197,0,0,0.0864197530864197,34.48148148148147,0)" xlink:href="#D"/><use transform="matrix(0.0864197530864197,0,0,0.0864197530864197,50.03703703703701,0)" xlink:href="#H"/><use transform="matrix(0.0864197530864197,0,0,0.0864197530864197,63.77777777777774,0)" xlink:href="#A"/><use transform="matrix(0.0864197530864197,0,0,0.0864197530864197,81.06172839506169,0)" xlink:href="#B"/><use transform="matrix(0.0864197530864197,0,0,0.0864197530864197,94.80246913580241,0)" xlink:href="#H"/></g><path fill="#333" d="M75-13V0H4v-13l17-5 84-220h51l83 220 18 5V0H152v-13l28-5-23-61H67L45-18zm38-189L74-98h76" id="N"/><path fill="#333" d="M109-18c15 0 31-2 42-6v14c-11 9-31 13-51 13-59 0-86-28-88-86-3-75 66-101 135-80v48h-13c-3-20-7-40-34-37-51 7-55 138 9 134" id="O"/><g id="e"><use transform="matrix(0.08641975308641973,0,0,0.08641975308641973,0,0)" xlink:href="#N"/><use transform="matrix(0.08641975308641973,0,0,0.08641975308641973,22.38271604938271,0)" xlink:href="#O"/><use transform="matrix(0.08641975308641973,0,0,0.08641975308641973,36.12345679012345,0)" xlink:href="#E"/><use transform="matrix(0.08641975308641973,0,0,0.08641975308641973,46.4074074074074,0)" xlink:href="#K"/><use transform="matrix(0.08641975308641973,0,0,0.08641975308641973,61.96296296296295,0)" xlink:href="#H"/></g><path fill="#333" d="M92-112c43 4 61-13 61-54s-18-54-61-50v104zm118-54c0 63-50 78-118 74v74l39 5V0H8v-13l28-5v-200l-30-5v-13c88 3 205-20 204 70" id="P"/><path fill="#333" d="M126-114c3-31-27-37-49-25v123l15 4V0H10v-12l16-4v-133l-16-5v-11h64l2 14c24-16 81-33 96 3 30-24 105-39 105 27v105l17 4V0h-82v-12l14-4v-98c4-33-27-37-51-24 5 35 0 82 2 122l17 4V0h-83v-12l15-4v-98" id="Q"/><g id="f"><use transform="matrix(0.06790123456790123,0,0,0.06790123456790123,0,0)" xlink:href="#P"/><use transform="matrix(0.06790123456790123,0,0,0.06790123456790123,14.87037037037037,0)" xlink:href="#D"/><use transform="matrix(0.06790123456790123,0,0,0.06790123456790123,27.09259259259259,0)" xlink:href="#H"/><use transform="matrix(0.06790123456790123,0,0,0.06790123456790123,37.888888888888886,0)" xlink:href="#D"/><use transform="matrix(0.06790123456790123,0,0,0.06790123456790123,50.11111111111111,0)" xlink:href="#Q"/><use transform="matrix(0.06790123456790123,0,0,0.06790123456790123,70.41358024691355,0)" xlink:href="#B"/><use transform="matrix(0.06790123456790123,0,0,0.06790123456790123,81.20987654320986,0)" xlink:href="#E"/><use transform="matrix(0.06790123456790123,0,0,0.06790123456790123,89.2901234567901,0)" xlink:href="#B"/><use transform="matrix(0.06790123456790123,0,0,0.06790123456790123,100.08641975308639,0)" xlink:href="#H"/></g><path fill="#333" d="M6-13l30-5v-200l-30-5v-13h201v60h-16l-6-38-93-2v86h61l6-26h16v73h-16l-6-27H92v91l104-3 10-44h16l-4 66H6v-13" id="R"/><g id="g"><use transform="matrix(0.06790123456790123,0,0,0.06790123456790123,0,0)" xlink:href="#R"/><use transform="matrix(0.06790123456790123,0,0,0.06790123456790123,16.296296296296294,0)" xlink:href="#A"/><use transform="matrix(0.06790123456790123,0,0,0.06790123456790123,29.87654320987654,0)" xlink:href="#I"/><use transform="matrix(0.06790123456790123,0,0,0.06790123456790123,42.09876543209876,0)" xlink:href="#z"/><use transform="matrix(0.06790123456790123,0,0,0.06790123456790123,48.888888888888886,0)" xlink:href="#H"/><use transform="matrix(0.06790123456790123,0,0,0.06790123456790123,59.20987654320987,0)" xlink:href="#K"/><use transform="matrix(0.06790123456790123,0,0,0.06790123456790123,71.4320987654321,0)" xlink:href="#A"/><use transform="matrix(0.06790123456790123,0,0,0.06790123456790123,85.01234567901236,0)" xlink:href="#Q"/><use transform="matrix(0.06790123456790123,0,0,0.06790123456790123,105.31481481481482,0)" xlink:href="#B"/><use transform="matrix(0.06790123456790123,0,0,0.06790123456790123,116.11111111111111,0)" xlink:href="#A"/><use transform="matrix(0.06790123456790123,0,0,0.06790123456790123,129.69135802469137,0)" xlink:href="#E"/></g><path fill="#333" d="M92-134c39 3 62-4 62-44 0-37-25-40-62-38v82zm0 115c49 5 80-2 80-50 0-44-34-49-80-46v96zm138-50C230 26 101-4 6 0v-13l30-5v-200l-30-5v-13c79 7 206-26 206 54 0 33-22 49-49 56 39 3 67 18 67 57" id="S"/><path fill="#333" d="M127-114c3-31-26-38-50-25v123l15 4V0H10v-12l16-4v-218l-17-4v-12h68l-1 99c31-23 102-32 102 30v105l17 4V0h-82v-12l14-4v-98" id="T"/><g id="h"><use transform="matrix(0.06790123456790123,0,0,0.06790123456790123,0,0)" xlink:href="#S"/><use transform="matrix(0.06790123456790123,0,0,0.06790123456790123,16.296296296296294,0)" xlink:href="#D"/><use transform="matrix(0.06790123456790123,0,0,0.06790123456790123,28.518518518518515,0)" xlink:href="#E"/><use transform="matrix(0.06790123456790123,0,0,0.06790123456790123,36.59876543209876,0)" xlink:href="#O"/><use transform="matrix(0.06790123456790123,0,0,0.06790123456790123,47.395061728395056,0)" xlink:href="#T"/><use transform="matrix(0.06790123456790123,0,0,0.06790123456790123,60.9753086419753,0)" xlink:href="#B"/><use transform="matrix(0.06790123456790123,0,0,0.06790123456790123,71.77160493827161,0)" xlink:href="#L"/></g><g id="i"><use transform="matrix(0.06790123456790123,0,0,0.06790123456790123,0,0)" xlink:href="#C"/><use transform="matrix(0.06790123456790123,0,0,0.06790123456790123,17.586419753086417,0)" xlink:href="#D"/><use transform="matrix(0.06790123456790123,0,0,0.06790123456790123,29.80864197530864,0)" xlink:href="#E"/><use transform="matrix(0.06790123456790123,0,0,0.06790123456790123,37.888888888888886,0)" xlink:href="#D"/></g><path fill="#333" d="M73-51c-3 31 27 38 51 25v-123l-16-5v-11h66v149l17 4V0h-65l-2-14C94 9 22 18 22-44v-105l-17-5v-11h68v114" id="U"/><g id="j"><use transform="matrix(0.06790123456790123,0,0,0.06790123456790123,0,0)" xlink:href="#R"/><use transform="matrix(0.06790123456790123,0,0,0.06790123456790123,16.296296296296294,0)" xlink:href="#I"/><use transform="matrix(0.06790123456790123,0,0,0.06790123456790123,28.518518518518515,0)" xlink:href="#D"/><use transform="matrix(0.06790123456790123,0,0,0.06790123456790123,40.74074074074073,0)" xlink:href="#y"/><use transform="matrix(0.06790123456790123,0,0,0.06790123456790123,47.53086419753086,0)" xlink:href="#U"/><use transform="matrix(0.06790123456790123,0,0,0.06790123456790123,61.11111111111111,0)" xlink:href="#D"/><use transform="matrix(0.06790123456790123,0,0,0.06790123456790123,73.33333333333333,0)" xlink:href="#E"/><use transform="matrix(0.06790123456790123,0,0,0.06790123456790123,81.41358024691358,0)" xlink:href="#K"/><use transform="matrix(0.06790123456790123,0,0,0.06790123456790123,93.6358024691358,0)" xlink:href="#H"/></g><path fill="#333" d="M54 0v-13l38-5v-199l-66 3-4 44H6v-66h229v66h-17l-4-44c-17-2-44-3-67-3v199l38 5V0H54" id="V"/><path fill="#333" d="M77-79l64-71-17-4v-11h63v11c-32 3-40 30-59 46l57 92 15 4V0h-80c-2-11 3-15 10-16L97-74 77-60v44l16 4V0H10v-12l16-4v-218l-17-4v-12h68v171" id="W"/><g id="k"><use transform="matrix(0.06790123456790123,0,0,0.06790123456790123,0,0)" xlink:href="#V"/><use transform="matrix(0.06790123456790123,0,0,0.06790123456790123,14.055555555555554,0)" xlink:href="#D"/><use transform="matrix(0.06790123456790123,0,0,0.06790123456790123,26.277777777777775,0)" xlink:href="#F"/><use transform="matrix(0.06790123456790123,0,0,0.06790123456790123,35.78395061728395,0)" xlink:href="#W"/></g><path fill="#333" d="M92-101v83l39 5V0H8v-13l28-5v-200l-30-5v-13h197v64h-17l-5-42c-27-3-59-2-89-2v96h57l6-30h15v80h-15l-6-31H92" id="X"/><path fill="#333" d="M154-149l38 94 32-94-20-5v-11h54v11l-13 4L190 4h-21l-38-93L93 4H72L13-149c-7-2-15-4-12-16h82v11l-20 5 36 94 38-94h17" id="Y"/><g id="l"><use transform="matrix(0.06790123456790123,0,0,0.06790123456790123,0,0)" xlink:href="#X"/><use transform="matrix(0.06790123456790123,0,0,0.06790123456790123,14.87037037037037,0)" xlink:href="#y"/><use transform="matrix(0.06790123456790123,0,0,0.06790123456790123,21.660493827160494,0)" xlink:href="#K"/><use transform="matrix(0.06790123456790123,0,0,0.06790123456790123,33.882716049382715,0)" xlink:href="#Y"/></g><path fill="#333" d="M6 0v-13l30-5v-200l-30-5v-13h116v13l-30 5v87h96v-87l-30-5v-13h116v13l-30 5v200l30 5V0H158v-13l30-5v-94H92v94l30 5V0H6" id="Z"/><g id="m"><use transform="matrix(0.06790123456790123,0,0,0.06790123456790123,0,0)" xlink:href="#Z"/><use transform="matrix(0.06790123456790123,0,0,0.06790123456790123,19.012345679012345,0)" xlink:href="#D"/><use transform="matrix(0.06790123456790123,0,0,0.06790123456790123,31.234567901234566,0)" xlink:href="#A"/><use transform="matrix(0.06790123456790123,0,0,0.06790123456790123,44.81481481481481,0)" xlink:href="#L"/><use transform="matrix(0.06790123456790123,0,0,0.06790123456790123,58.395061728395056,0)" xlink:href="#y"/><use transform="matrix(0.06790123456790123,0,0,0.06790123456790123,65.18518518518518,0)" xlink:href="#B"/><use transform="matrix(0.06790123456790123,0,0,0.06790123456790123,75.98148148148147,0)" xlink:href="#H"/></g><g id="n"><use transform="matrix(0.07407407407407407,0,0,0.07407407407407407,0,0)" xlink:href="#V"/><use transform="matrix(0.07407407407407407,0,0,0.07407407407407407,15.333333333333334,0)" xlink:href="#D"/><use transform="matrix(0.07407407407407407,0,0,0.07407407407407407,28.666666666666664,0)" xlink:href="#F"/><use transform="matrix(0.07407407407407407,0,0,0.07407407407407407,39.03703703703704,0)" xlink:href="#W"/></g><path fill="#333" d="M186-86c2 69-46 103-114 85l1 62 25 4v12H5V65l18-4v-210l-18-5v-11h67v8c12-8 26-13 46-13 49 2 67 30 68 84zm-83 71c28 0 31-33 31-69 0-34-2-66-30-66-12 0-23 3-31 7v124c9 2 20 4 30 4" id="aa"/><path fill="#333" d="M9 41c2-18 18-26 32-33C29 1 16-9 16-28l29-33c-21-9-31-25-31-51-2-56 61-65 111-53l39-20c13 12-9 24-14 36 35 54-17 114-90 92-17 34 27 28 56 28 36-1 61 12 60 46-2 46-39 62-91 62-38 0-71-6-76-38zm35-3c6 35 97 29 94-9-2-28-50-14-78-17-8 7-15 14-16 26zm20-150c0 22 4 40 23 40 20 0 24-17 24-40 0-24-4-40-24-40-19 0-23 17-23 40" id="ab"/><g id="o"><use transform="matrix(0.07407407407407407,0,0,0.07407407407407407,0,0)" xlink:href="#C"/><use transform="matrix(0.07407407407407407,0,0,0.07407407407407407,19.185185185185183,0)" xlink:href="#z"/><use transform="matrix(0.07407407407407407,0,0,0.07407407407407407,26.592592592592588,0)" xlink:href="#F"/><use transform="matrix(0.07407407407407407,0,0,0.07407407407407407,36.96296296296296,0)" xlink:href="#aa"/><use transform="matrix(0.07407407407407407,0,0,0.07407407407407407,51.77777777777777,0)" xlink:href="#D"/><use transform="matrix(0.07407407407407407,0,0,0.07407407407407407,65.1111111111111,0)" xlink:href="#E"/><use transform="matrix(0.07407407407407407,0,0,0.07407407407407407,73.92592592592591,0)" xlink:href="#O"/><use transform="matrix(0.07407407407407407,0,0,0.07407407407407407,85.70370370370368,0)" xlink:href="#T"/><use transform="matrix(0.07407407407407407,0,0,0.07407407407407407,100.51851851851849,0)" xlink:href="#z"/><use transform="matrix(0.07407407407407407,0,0,0.07407407407407407,107.92592592592591,0)" xlink:href="#A"/><use transform="matrix(0.07407407407407407,0,0,0.07407407407407407,122.7407407407407,0)" xlink:href="#ab"/></g><g id="p"><use transform="matrix(0.07407407407407404,0,0,0.07407407407407404,0,0)" xlink:href="#L"/><use transform="matrix(0.07407407407407404,0,0,0.07407407407407404,14.814814814814808,0)" xlink:href="#D"/><use transform="matrix(0.07407407407407404,0,0,0.07407407407407404,28.148148148148135,0)" xlink:href="#E"/><use transform="matrix(0.07407407407407404,0,0,0.07407407407407404,36.96296296296295,0)" xlink:href="#D"/></g><path fill="#333" d="M222-170c0 37-18 56-47 65l63 87 25 5V0h-76l-66-100H92v82l30 5V0H8v-13l28-5v-200l-30-5v-13c89 5 214-24 216 66zM92-119c45 2 75-3 75-50s-30-49-75-47v97" id="ac"/><path fill="#333" d="M101-152c-33 3-35 37-35 73 0 33 4 62 35 63 9 0 22-3 27-7v-126c-8-1-18-3-27-3zM15-83c-5-75 54-97 127-83 11-4 21-9 37-7V61l18 4v12h-93V65l24-4 2-71C80 24 3-8 15-83" id="ad"/><g id="q"><use transform="matrix(0.07407407407407407,0,0,0.07407407407407407,0,0)" xlink:href="#ac"/><use transform="matrix(0.07407407407407407,0,0,0.07407407407407407,19.185185185185183,0)" xlink:href="#B"/><use transform="matrix(0.07407407407407407,0,0,0.07407407407407407,30.962962962962962,0)" xlink:href="#ad"/><use transform="matrix(0.07407407407407407,0,0,0.07407407407407407,45.77777777777778,0)" xlink:href="#U"/><use transform="matrix(0.07407407407407407,0,0,0.07407407407407407,60.59259259259258,0)" xlink:href="#B"/><use transform="matrix(0.07407407407407407,0,0,0.07407407407407407,72.37037037037035,0)" xlink:href="#F"/><use transform="matrix(0.07407407407407407,0,0,0.07407407407407407,82.74074074074072,0)" xlink:href="#E"/></g><path fill="#333" d="M21 4H-4l83-241h25" id="ae"/><g id="r"><use transform="matrix(0.07407407407407404,0,0,0.07407407407407404,0,0)" xlink:href="#aa"/><use transform="matrix(0.07407407407407404,0,0,0.07407407407407404,14.814814814814808,0)" xlink:href="#D"/><use transform="matrix(0.07407407407407404,0,0,0.07407407407407404,28.148148148148135,0)" xlink:href="#H"/><use transform="matrix(0.07407407407407404,0,0,0.07407407407407404,39.92592592592591,0)" xlink:href="#D"/><use transform="matrix(0.07407407407407404,0,0,0.07407407407407404,53.25925925925924,0)" xlink:href="#Q"/><use transform="matrix(0.07407407407407404,0,0,0.07407407407407404,75.40740740740738,0)" xlink:href="#B"/><use transform="matrix(0.07407407407407404,0,0,0.07407407407407404,87.18518518518515,0)" xlink:href="#E"/><use transform="matrix(0.07407407407407404,0,0,0.07407407407407404,95.99999999999996,0)" xlink:href="#B"/><use transform="matrix(0.07407407407407404,0,0,0.07407407407407404,107.77777777777773,0)" xlink:href="#H"/><use transform="matrix(0.07407407407407404,0,0,0.07407407407407404,119.5555555555555,0)" xlink:href="#F"/><use transform="matrix(0.07407407407407404,0,0,0.07407407407407404,129.92592592592587,0)" xlink:href="#ae"/><use transform="matrix(0.07407407407407404,0,0,0.07407407407407404,137.33333333333326,0)" xlink:href="#ab"/><use transform="matrix(0.07407407407407404,0,0,0.07407407407407404,150.66666666666657,0)" xlink:href="#H"/><use transform="matrix(0.07407407407407404,0,0,0.07407407407407404,162.44444444444434,0)" xlink:href="#D"/><use transform="matrix(0.07407407407407404,0,0,0.07407407407407404,175.77777777777766,0)" xlink:href="#L"/><use transform="matrix(0.07407407407407404,0,0,0.07407407407407404,190.59259259259247,0)" xlink:href="#z"/><use transform="matrix(0.07407407407407404,0,0,0.07407407407407404,197.99999999999986,0)" xlink:href="#B"/><use transform="matrix(0.07407407407407404,0,0,0.07407407407407404,209.77777777777763,0)" xlink:href="#A"/><use transform="matrix(0.07407407407407404,0,0,0.07407407407407404,224.59259259259244,0)" xlink:href="#E"/><use transform="matrix(0.07407407407407404,0,0,0.07407407407407404,233.40740740740725,0)" xlink:href="#F"/></g><g id="s"><use transform="matrix(0.07407407407407404,0,0,0.07407407407407404,0,0)" xlink:href="#aa"/><use transform="matrix(0.07407407407407404,0,0,0.07407407407407404,14.814814814814808,0)" xlink:href="#D"/><use transform="matrix(0.07407407407407404,0,0,0.07407407407407404,28.148148148148135,0)" xlink:href="#H"/><use transform="matrix(0.07407407407407404,0,0,0.07407407407407404,39.92592592592591,0)" xlink:href="#D"/><use transform="matrix(0.07407407407407404,0,0,0.07407407407407404,53.25925925925924,0)" xlink:href="#Q"/><use transform="matrix(0.07407407407407404,0,0,0.07407407407407404,75.40740740740738,0)" xlink:href="#B"/><use transform="matrix(0.07407407407407404,0,0,0.07407407407407404,87.18518518518515,0)" xlink:href="#E"/><use transform="matrix(0.07407407407407404,0,0,0.07407407407407404,95.99999999999996,0)" xlink:href="#B"/><use transform="matrix(0.07407407407407404,0,0,0.07407407407407404,107.77777777777773,0)" xlink:href="#H"/><use transform="matrix(0.07407407407407404,0,0,0.07407407407407404,119.5555555555555,0)" xlink:href="#ae"/><use transform="matrix(0.07407407407407404,0,0,0.07407407407407404,126.9629629629629,0)" xlink:href="#ab"/><use transform="matrix(0.07407407407407404,0,0,0.07407407407407404,140.29629629629622,0)" xlink:href="#H"/><use transform="matrix(0.07407407407407404,0,0,0.07407407407407404,152.07407407407396,0)" xlink:href="#D"/><use transform="matrix(0.07407407407407404,0,0,0.07407407407407404,165.4074074074073,0)" xlink:href="#z"/><use transform="matrix(0.07407407407407404,0,0,0.07407407407407404,172.8148148148147,0)" xlink:href="#B"/><use transform="matrix(0.07407407407407404,0,0,0.07407407407407404,184.59259259259247,0)" xlink:href="#A"/><use transform="matrix(0.07407407407407404,0,0,0.07407407407407404,199.40740740740728,0)" xlink:href="#E"/><use transform="matrix(0.07407407407407404,0,0,0.07407407407407404,208.2222222222221,0)" xlink:href="#F"/></g><path fill="#333" d="M98-18l30 5V0H12v-13l30-5v-200l-30-5v-13h116v13l-30 5v200" id="af"/><g id="t"><use transform="matrix(0.06790123456790123,0,0,0.06790123456790123,0,0)" xlink:href="#N"/><use transform="matrix(0.06790123456790123,0,0,0.06790123456790123,17.586419753086417,0)" xlink:href="#ab"/><use transform="matrix(0.06790123456790123,0,0,0.06790123456790123,29.80864197530864,0)" xlink:href="#B"/><use transform="matrix(0.06790123456790123,0,0,0.06790123456790123,40.60493827160494,0)" xlink:href="#A"/><use transform="matrix(0.06790123456790123,0,0,0.06790123456790123,54.18518518518518,0)" xlink:href="#E"/><use transform="matrix(0.06790123456790123,0,0,0.06790123456790123,62.26543209876543,0)" xlink:href="#af"/><use transform="matrix(0.06790123456790123,0,0,0.06790123456790123,71.77160493827161,0)" xlink:href="#A"/><use transform="matrix(0.06790123456790123,0,0,0.06790123456790123,85.35185185185185,0)" xlink:href="#E"/><use transform="matrix(0.06790123456790123,0,0,0.06790123456790123,93.43209876543212,0)" xlink:href="#B"/><use transform="matrix(0.06790123456790123,0,0,0.06790123456790123,104.22839506172839,0)" xlink:href="#H"/><use transform="matrix(0.06790123456790123,0,0,0.06790123456790123,115.02469135802468,0)" xlink:href="#x"/><use transform="matrix(0.06790123456790123,0,0,0.06790123456790123,123.10493827160494,0)" xlink:href="#D"/><use transform="matrix(0.06790123456790123,0,0,0.06790123456790123,135.32716049382717,0)" xlink:href="#O"/><use transform="matrix(0.06790123456790123,0,0,0.06790123456790123,146.12345679012347,0)" xlink:href="#B"/><use transform="matrix(0.06790123456790123,0,0,0.06790123456790123,156.91975308641977,0)" xlink:href="#F"/></g><path fill="#333" d="M81 5L15-149c-7-2-13-5-11-16h84v11l-20 5 39 91 35-91-19-5v-11h53c2 11-4 13-11 15C134-81 111-5 75 58 65 77 34 83 8 74V32h11c0 24 29 35 43 12 7-11 13-25 19-39" id="ag"/><g id="v"><use transform="matrix(0.06790123456790123,0,0,0.06790123456790123,0,0)" xlink:href="#P"/><use transform="matrix(0.06790123456790123,0,0,0.06790123456790123,14.87037037037037,0)" xlink:href="#K"/><use transform="matrix(0.06790123456790123,0,0,0.06790123456790123,27.09259259259259,0)" xlink:href="#y"/><use transform="matrix(0.06790123456790123,0,0,0.06790123456790123,33.882716049382715,0)" xlink:href="#z"/><use transform="matrix(0.06790123456790123,0,0,0.06790123456790123,40.672839506172835,0)" xlink:href="#O"/><use transform="matrix(0.06790123456790123,0,0,0.06790123456790123,51.46913580246913,0)" xlink:href="#ag"/></g></defs></g></svg>