<?xml version="1.0" encoding="utf-8"?>
<!-- Generator: Adobe Illustrator 25.2.0, SVG Export Plug-In . SVG Version: 6.00 Build 0)  -->
<svg version="1.1" id="Layer_1" xmlns="http://www.w3.org/2000/svg" xmlns:xlink="http://www.w3.org/1999/xlink" x="0px" y="0px"
	 viewBox="0 0 144.98 62.82" style="enable-background:new 0 0 144.98 62.82;" xml:space="preserve">
<style type="text/css">
	.st0{fill:#34A3DC;}
	.st1{fill:#3EA4DD;}
	.st2{fill:none;stroke:#4136AD;stroke-width:30;stroke-linecap:round;stroke-linejoin:round;stroke-miterlimit:10;}
	.st3{fill:#3D3082;}
	.st4{fill:#E93081;}
	.st5{fill:#491C6F;}
	.st6{fill:#6E3282;}
	.st7{fill:#E6310B;}
	.st8{fill:#412C28;}
	.st9{fill:#F49200;}
	.st10{fill:#FFEF00;}
	.st11{fill:#A5D8D6;}
	.st12{fill:#A2C72D;}
	.st13{fill:#99CA47;}
	.st14{fill:#685B30;}
	.st15{fill:#33A3DC;}
	.st16{fill:#F7941D;}
	.st17{fill:#EE3D8A;}
	.st18{fill:#99643E;}
	.st19{fill:#96D5D2;}
	.st20{fill:none;}
	.st21{fill:#4136AD;}
	.st22{fill:#F20A64;}
	.st23{fill:none;stroke:#4136AD;stroke-width:40;stroke-linecap:round;stroke-linejoin:round;stroke-miterlimit:10;}
	.st24{fill:#495043;}
	.st25{fill:url(#SVGID_1_);}
	.st26{fill:url(#SVGID_2_);}
	.st27{fill:#FFFFFF;}
	.st28{fill:#A2AEFF;}
	.st29{fill:url(#SVGID_3_);}
	.st30{fill:url(#SVGID_4_);}
	.st31{fill:#CE00FF;}
	.st32{fill:none;stroke:url(#SVGID_5_);stroke-width:12.7299;stroke-linecap:round;stroke-linejoin:round;stroke-miterlimit:10;}
	.st33{fill:url(#SVGID_6_);}
	.st34{fill:url(#SVGID_7_);}
	.st35{fill:url(#SVGID_8_);}
	.st36{fill:#FC7746;}
	.st37{fill:#8386EF;}
	.st38{fill:#63C9BD;}
	.st39{fill:#A561FF;}
	.st40{fill:#FFB309;}
	.st41{fill:url(#SVGID_9_);}
	.st42{fill:url(#SVGID_10_);}
	.st43{fill:#3BA7EF;}
	.st44{fill:#E57708;}
	.st45{fill:#E70E71;}
	.st46{fill:#FF4855;}
	.st47{fill:#23CABE;}
	.st48{fill:#3C70DF;}
	.st49{fill:url(#SVGID_11_);}
	.st50{fill:url(#SVGID_12_);}
	.st51{fill:#A561FF;stroke:#042E30;stroke-width:0.75;stroke-miterlimit:10;}
	.st52{fill:#FFB309;stroke:#042E30;stroke-width:0.75;stroke-miterlimit:10;}
	.st53{fill:none;stroke:#042E30;stroke-width:0.75;stroke-miterlimit:10;}
	.st54{fill:url(#SVGID_13_);stroke:#042E30;stroke-width:0.75;stroke-miterlimit:10;}
	.st55{fill:url(#SVGID_14_);stroke:#042E30;stroke-width:0.75;stroke-miterlimit:10;}
	.st56{fill:#3BA7EF;stroke:#042E30;stroke-width:0.75;stroke-miterlimit:10;}
	.st57{fill:#FFFFFF;stroke:#042E30;stroke-width:0.75;stroke-miterlimit:10;}
	.st58{fill:#E57708;stroke:#042E30;stroke-width:0.75;stroke-miterlimit:10;}
	.st59{stroke:#000000;stroke-width:0.25;stroke-miterlimit:10;}
	.st60{fill:#A561FF;stroke:#1D1D1B;stroke-miterlimit:10;}
	.st61{fill:#FFB309;stroke:#1D1D1B;stroke-miterlimit:10;}
	.st62{fill:none;stroke:#1D1D1B;stroke-miterlimit:10;}
	.st63{fill:#FFFFFF;stroke:#1D1D1B;stroke-miterlimit:10;}
	.st64{stroke:#1D1D1B;stroke-width:0.25;stroke-miterlimit:10;}
	.st65{fill:#04212D;}
	.st66{fill:#1F7CC6;}
	.st67{fill:#FFD58B;}
	.st68{fill:url(#SVGID_15_);}
	.st69{fill:url(#SVGID_16_);}
	.st70{fill:#A561FF;stroke:#FFFFFF;stroke-width:0.75;stroke-miterlimit:10;}
	.st71{fill:#FFB309;stroke:#FFFFFF;stroke-width:0.75;stroke-miterlimit:10;}
	.st72{fill:none;stroke:#FFFFFF;stroke-width:0.75;stroke-miterlimit:10;}
	.st73{fill:url(#SVGID_17_);stroke:#FFFFFF;stroke-width:0.75;stroke-miterlimit:10;}
	.st74{fill:url(#SVGID_18_);stroke:#FFFFFF;stroke-width:0.75;stroke-miterlimit:10;}
	.st75{fill:#3BA7EF;stroke:#FFFFFF;stroke-width:0.75;stroke-miterlimit:10;}
	.st76{fill:#FFFFFF;stroke:#FFFFFF;stroke-width:0.75;stroke-miterlimit:10;}
	.st77{fill:#E57708;stroke:#FFFFFF;stroke-width:0.75;stroke-miterlimit:10;}
	.st78{fill:#FFFFFF;stroke:#FFFFFF;stroke-width:0.25;stroke-miterlimit:10;}
	.st79{fill:#A561FF;stroke:#FFFFFF;stroke-miterlimit:10;}
	.st80{fill:#FFB309;stroke:#FFFFFF;stroke-miterlimit:10;}
	.st81{fill:none;stroke:#FFFFFF;stroke-miterlimit:10;}
	.st82{fill:#FFFFFF;stroke:#FFFFFF;stroke-miterlimit:10;}
	.st83{fill:#050505;}
	.st84{fill:#0D0C0D;}
</style>
<g>
	<g>
		<path class="st36" d="M52.31,43.63V20.52l-15.21,12.4c-2.42,1.97-5.89,1.98-8.32,0.02L13.07,20.29l-0.4,23.41
			c-0.04,3.65-3.03,6.58-6.68,6.54C2.34,50.2-0.04,47.21,0,43.56V6.54c0.03-2.53,1.5-4.82,3.79-5.9c2.29-1.08,4.99-0.76,6.96,0.83
			l22.14,17.83L54.74,1.49c1.98-1.61,4.71-1.94,7.01-0.85c2.3,1.09,3.77,3.42,3.77,5.97v25.31"/>
		<path class="st37" d="M94.97,3.17c1.77-2.15,5.53-3.72,8.16-2.78c2.63,0.94,4.38,3.43,4.38,6.22l0,36.84
			c0,2.11-0.91,4.16-2.6,5.44c-2.35,1.78-5.52,1.78-7.84,0.13l-11.4-8.12c-2.96-2.11-3.85-6.24-1.8-9.24
			c2.09-3.06,6.28-3.79,9.29-1.65l1.14,0.81v-8.68l-30.28,25.7c-1.69,1.52-3.17,2.41-5.1,2.41c-1.12,0-2.25-0.28-3.3-0.88
			c-2.09-1.19-3.31-3.48-3.31-5.88v0c0-2.41,1.01-4.71,2.79-6.34L94.97,3.17z"/>
		<circle class="st27" cx="6.22" cy="6.56" r="4.13"/>
		<circle class="st27" cx="58.85" cy="6.56" r="4.13"/>
		<circle class="st27" cx="58.63" cy="43.74" r="4.13"/>
		<circle class="st27" cx="101.19" cy="6.56" r="4.13"/>
		<circle class="st27" cx="101.19" cy="44.01" r="4.13"/>
		<circle class="st27" cx="6.22" cy="44.01" r="4.13"/>
	</g>
	<g>
		<path class="st38" d="M118.55,46.6c-0.08,0-0.16,0.01-0.24,0.02l0,0c-0.97,0.13-1.69,0.03-2.03-0.28
			c-0.32-0.3-0.37-0.89-0.36-1.11l0.01-0.05V31.7h0c0-1.01-0.82-1.83-1.83-1.83c-1.01,0-1.83,0.82-1.83,1.83c0,0,0,0,0,0V45
			c-0.03,0.54-0.04,2.52,1.46,3.96c0.95,0.91,2.22,1.37,3.81,1.37c0.38,0,0.79-0.03,1.21-0.08c0,0,0,0,0,0c0.02,0,0.04,0,0.06-0.01
			l0,0c0.89-0.12,1.58-0.88,1.58-1.81C120.38,47.42,119.56,46.6,118.55,46.6z"/>
		<circle class="st38" cx="124.83" cy="31.73" r="1.83"/>
		<path class="st38" d="M124.83,35.44c-1.01,0-1.83,0.82-1.83,1.83v11.05c0,1.01,0.82,1.83,1.83,1.83s1.83-0.82,1.83-1.83V37.27
			C126.66,36.26,125.84,35.44,124.83,35.44z"/>
		<path class="st38" d="M137.56,35.44c-1.32,0-2.61,0.36-3.75,1.04v-4.55c0-1.01-0.82-1.83-1.83-1.83c-1.01,0-1.83,0.82-1.83,1.83
			v11.06v5.53h0c0,0,0,0.01,0,0.01c0,1.01,0.82,1.83,1.83,1.83c0.71,0,1.32-0.4,1.62-0.99c3.37,2.17,7.86,1.23,10.11-2.18
			C147.02,42.17,143.46,35.44,137.56,35.44z M137.77,46.78c-2.2,0-3.99-1.79-3.99-3.99c0-2.2,1.79-3.99,3.99-3.99
			s3.99,1.79,3.99,3.99C141.77,44.99,139.98,46.78,137.77,46.78z"/>
	</g>
	<g>
		<path d="M1.57,55.27h3.38v0.48H2.1v2.01h2.65v0.48H2.1v2.68H1.57V55.27z"/>
		<path d="M5.66,59.07c0-0.28,0.05-0.54,0.14-0.78c0.1-0.24,0.23-0.44,0.4-0.61c0.17-0.17,0.37-0.31,0.61-0.4
			c0.24-0.1,0.5-0.14,0.78-0.14c0.28,0,0.54,0.05,0.78,0.14s0.44,0.23,0.61,0.4c0.17,0.17,0.31,0.38,0.4,0.61
			c0.1,0.24,0.14,0.5,0.14,0.78s-0.05,0.54-0.14,0.78c-0.1,0.24-0.23,0.44-0.4,0.61c-0.17,0.17-0.38,0.31-0.61,0.4S7.88,61,7.59,61
			c-0.28,0-0.54-0.05-0.78-0.14c-0.24-0.1-0.44-0.23-0.61-0.4c-0.17-0.17-0.3-0.38-0.4-0.61C5.71,59.61,5.66,59.35,5.66,59.07z
			 M6.14,59.07c0,0.21,0.03,0.4,0.1,0.59c0.07,0.18,0.16,0.34,0.29,0.48c0.13,0.14,0.28,0.24,0.46,0.32
			c0.18,0.08,0.38,0.12,0.61,0.12c0.22,0,0.42-0.04,0.61-0.12c0.18-0.08,0.33-0.19,0.46-0.32c0.13-0.14,0.22-0.29,0.29-0.48
			c0.07-0.18,0.1-0.38,0.1-0.59s-0.03-0.4-0.1-0.59C8.89,58.3,8.79,58.14,8.66,58c-0.13-0.14-0.28-0.24-0.46-0.32
			c-0.18-0.08-0.38-0.12-0.61-0.12c-0.22,0-0.42,0.04-0.61,0.12C6.81,57.76,6.65,57.87,6.53,58C6.4,58.14,6.3,58.3,6.24,58.48
			C6.17,58.66,6.14,58.86,6.14,59.07z"/>
		<path d="M10.6,58.26c0-0.07,0-0.15-0.01-0.25c-0.01-0.1-0.01-0.2-0.01-0.3c0-0.1-0.01-0.2-0.01-0.28
			c-0.01-0.09-0.01-0.16-0.01-0.2h0.48c0.01,0.14,0.01,0.27,0.01,0.4c0,0.13,0.01,0.21,0.02,0.25c0.12-0.22,0.28-0.4,0.47-0.53
			c0.19-0.14,0.42-0.21,0.7-0.21c0.05,0,0.09,0,0.14,0.01c0.05,0.01,0.09,0.02,0.14,0.03l-0.06,0.47c-0.06-0.02-0.13-0.03-0.18-0.03
			c-0.21,0-0.39,0.03-0.54,0.1c-0.15,0.07-0.28,0.16-0.37,0.28c-0.1,0.12-0.17,0.25-0.22,0.41s-0.07,0.33-0.07,0.51v2.01H10.6V58.26
			z"/>
		<path class="st36" d="M15.54,55.27h1.88l1.3,3.68h0.02l1.31-3.68h1.87v5.64h-1.24v-4.33h-0.02l-1.48,4.33h-0.95l-1.43-4.33h-0.02
			v4.33h-1.24V55.27z"/>
		<path d="M26.24,59.87c0,0.07,0,0.15,0.01,0.25c0.01,0.1,0.01,0.2,0.01,0.3c0,0.1,0.01,0.2,0.01,0.28c0.01,0.09,0.01,0.16,0.01,0.2
			H25.8c-0.01-0.14-0.01-0.27-0.01-0.4c0-0.13-0.01-0.21-0.02-0.25h-0.02c-0.1,0.2-0.25,0.38-0.48,0.52
			C25.05,60.93,24.79,61,24.49,61c-0.29,0-0.52-0.05-0.7-0.14c-0.18-0.09-0.33-0.21-0.43-0.35c-0.1-0.15-0.17-0.31-0.21-0.51
			s-0.06-0.39-0.06-0.59v-2.19h0.48v2.17c0,0.15,0.01,0.29,0.04,0.43s0.07,0.27,0.14,0.38s0.16,0.2,0.28,0.27s0.27,0.1,0.47,0.1
			c0.18,0,0.34-0.03,0.5-0.09c0.16-0.06,0.29-0.15,0.41-0.28c0.11-0.12,0.2-0.28,0.27-0.47c0.07-0.19,0.1-0.41,0.1-0.67v-1.84h0.48
			V59.87z"/>
		<path d="M27.64,54.88h0.48v6.02h-0.48V54.88z"/>
		<path d="M31.28,57.66h-1.05v2.4c0,0.16,0.04,0.29,0.14,0.38c0.09,0.09,0.22,0.14,0.37,0.14c0.09,0,0.18-0.01,0.27-0.04
			s0.18-0.05,0.27-0.09l0.04,0.43c-0.09,0.03-0.19,0.06-0.31,0.09C30.89,60.99,30.79,61,30.7,61c-0.17,0-0.32-0.03-0.44-0.08
			c-0.12-0.05-0.22-0.12-0.29-0.2c-0.07-0.08-0.13-0.18-0.16-0.3c-0.03-0.11-0.05-0.24-0.05-0.37v-2.4h-0.8v-0.43h0.8v-1.06h0.48
			v1.06h1.05V57.66z"/>
		<path d="M32.1,55.77c0-0.1,0.03-0.19,0.1-0.25c0.07-0.07,0.15-0.1,0.26-0.1c0.1,0,0.19,0.03,0.25,0.1c0.07,0.07,0.1,0.15,0.1,0.25
			c0,0.1-0.03,0.19-0.1,0.26c-0.07,0.07-0.15,0.1-0.25,0.1c-0.1,0-0.19-0.03-0.26-0.1C32.13,55.95,32.1,55.87,32.1,55.77z
			 M32.22,57.22h0.48v3.68h-0.48V57.22z"/>
		<path d="M33.75,58.8h1.97v0.43h-1.97V58.8z"/>
		<path class="st37" d="M38.49,55.27h1.03l2.45,5.64h-1.4l-0.49-1.2H37.9l-0.47,1.2h-1.37L38.49,55.27z M38.97,56.91l-0.69,1.75
			h1.38L38.97,56.91z"/>
		<path d="M46.3,60.67c0,0.46-0.07,0.83-0.2,1.11s-0.3,0.5-0.5,0.65c-0.2,0.15-0.41,0.26-0.64,0.31c-0.23,0.05-0.44,0.08-0.62,0.08
			s-0.37-0.02-0.55-0.05c-0.18-0.03-0.35-0.08-0.51-0.15c-0.16-0.07-0.3-0.15-0.43-0.24c-0.13-0.1-0.24-0.2-0.34-0.33l0.37-0.35
			c0.17,0.24,0.38,0.41,0.64,0.53c0.25,0.11,0.53,0.17,0.81,0.17c0.24,0,0.45-0.03,0.62-0.1c0.17-0.06,0.31-0.15,0.41-0.25
			c0.11-0.1,0.19-0.22,0.26-0.34c0.06-0.12,0.11-0.25,0.14-0.37c0.03-0.13,0.05-0.24,0.05-0.35c0.01-0.11,0.01-0.2,0.01-0.27v-0.51
			h-0.02c-0.14,0.22-0.33,0.4-0.56,0.53c-0.24,0.13-0.51,0.19-0.83,0.19c-0.27,0-0.53-0.05-0.76-0.15c-0.24-0.1-0.45-0.23-0.63-0.41
			c-0.18-0.17-0.32-0.37-0.42-0.6s-0.16-0.47-0.16-0.73s0.05-0.5,0.16-0.73c0.1-0.23,0.24-0.43,0.42-0.6
			c0.18-0.17,0.39-0.31,0.63-0.41c0.24-0.1,0.49-0.15,0.76-0.15c0.32,0,0.6,0.06,0.83,0.19c0.24,0.13,0.42,0.3,0.56,0.53h0.02v-0.62
			h0.48V60.67z M45.84,59.02c0-0.2-0.04-0.39-0.12-0.57c-0.08-0.18-0.18-0.33-0.31-0.46c-0.13-0.13-0.28-0.23-0.46-0.31
			c-0.18-0.08-0.37-0.12-0.57-0.12s-0.39,0.04-0.57,0.12c-0.18,0.08-0.33,0.18-0.46,0.31c-0.13,0.13-0.23,0.28-0.31,0.46
			c-0.08,0.18-0.12,0.37-0.12,0.57c0,0.2,0.04,0.39,0.12,0.57c0.08,0.18,0.18,0.33,0.31,0.46c0.13,0.13,0.28,0.23,0.46,0.31
			c0.18,0.08,0.37,0.12,0.57,0.12s0.39-0.04,0.57-0.12c0.18-0.08,0.33-0.18,0.46-0.31c0.13-0.13,0.23-0.28,0.31-0.46
			C45.8,59.41,45.84,59.22,45.84,59.02z"/>
		<path d="M50.72,60.21c-0.19,0.28-0.42,0.48-0.69,0.61c-0.27,0.12-0.57,0.18-0.9,0.18c-0.28,0-0.54-0.05-0.76-0.14
			c-0.23-0.1-0.42-0.23-0.59-0.4c-0.16-0.17-0.29-0.38-0.38-0.61c-0.09-0.24-0.13-0.5-0.13-0.78c0-0.28,0.05-0.53,0.14-0.76
			c0.09-0.23,0.22-0.44,0.38-0.61c0.16-0.17,0.36-0.31,0.58-0.41s0.47-0.15,0.74-0.15c0.28,0,0.53,0.05,0.74,0.15
			c0.22,0.1,0.4,0.23,0.54,0.39c0.15,0.16,0.26,0.35,0.33,0.55c0.07,0.21,0.11,0.42,0.11,0.63v0.33h-3.09c0,0.1,0.02,0.23,0.06,0.39
			c0.04,0.16,0.11,0.31,0.22,0.46c0.11,0.15,0.25,0.28,0.43,0.38c0.18,0.11,0.41,0.16,0.69,0.16c0.24,0,0.48-0.06,0.71-0.18
			c0.23-0.12,0.4-0.28,0.53-0.48L50.72,60.21z M50.36,58.75c0-0.16-0.03-0.32-0.1-0.46c-0.07-0.14-0.16-0.27-0.27-0.38
			c-0.11-0.11-0.25-0.2-0.41-0.26c-0.16-0.06-0.32-0.1-0.5-0.1c-0.26,0-0.48,0.05-0.65,0.16c-0.17,0.11-0.31,0.23-0.41,0.37
			c-0.1,0.14-0.17,0.27-0.22,0.4c-0.04,0.13-0.06,0.22-0.06,0.27H50.36z"/>
		<path d="M51.9,58.26c0-0.07,0-0.15-0.01-0.25c-0.01-0.1-0.01-0.2-0.01-0.3c0-0.1-0.01-0.2-0.01-0.28
			c-0.01-0.09-0.01-0.16-0.01-0.2h0.48c0.01,0.14,0.01,0.27,0.01,0.4c0,0.13,0.01,0.21,0.02,0.25h0.02c0.1-0.2,0.26-0.38,0.48-0.52
			c0.22-0.15,0.48-0.22,0.78-0.22c0.29,0,0.52,0.05,0.7,0.14c0.18,0.09,0.32,0.21,0.43,0.35c0.1,0.15,0.18,0.31,0.22,0.51
			c0.04,0.19,0.06,0.39,0.06,0.59v2.19h-0.48v-2.17c0-0.15-0.01-0.29-0.04-0.43c-0.03-0.14-0.07-0.27-0.14-0.38
			c-0.07-0.11-0.16-0.2-0.28-0.27c-0.12-0.07-0.28-0.1-0.47-0.1c-0.17,0-0.34,0.03-0.5,0.09c-0.16,0.06-0.29,0.15-0.41,0.28
			c-0.11,0.12-0.2,0.28-0.27,0.47c-0.07,0.19-0.1,0.41-0.1,0.67v1.84H51.9V58.26z"/>
		<path d="M58.13,57.66h-1.05v2.4c0,0.16,0.04,0.29,0.14,0.38c0.09,0.09,0.22,0.14,0.37,0.14c0.09,0,0.18-0.01,0.27-0.04
			c0.09-0.02,0.18-0.05,0.27-0.09l0.04,0.43c-0.09,0.03-0.19,0.06-0.31,0.09C57.74,60.99,57.64,61,57.55,61
			c-0.17,0-0.32-0.03-0.44-0.08c-0.12-0.05-0.22-0.12-0.29-0.2c-0.07-0.08-0.13-0.18-0.16-0.3c-0.03-0.11-0.05-0.24-0.05-0.37v-2.4
			h-0.8v-0.43h0.8v-1.06h0.48v1.06h1.05V57.66z"/>
		<path d="M61.19,55.27h1.48c0.07,0,0.18,0,0.3,0.01c0.13,0.01,0.27,0.02,0.41,0.05c0.15,0.03,0.3,0.07,0.45,0.13
			c0.15,0.06,0.29,0.14,0.41,0.26c0.12,0.11,0.22,0.25,0.3,0.42c0.08,0.17,0.12,0.38,0.12,0.62c0,0.27-0.05,0.49-0.14,0.67
			c-0.09,0.18-0.21,0.32-0.35,0.43c-0.14,0.11-0.3,0.19-0.47,0.24c-0.17,0.05-0.33,0.09-0.49,0.11l1.64,2.71h-0.6l-1.59-2.68h-0.98
			v2.68h-0.53V55.27z M61.72,57.75h1.12c0.28,0,0.5-0.03,0.67-0.1c0.17-0.07,0.31-0.15,0.4-0.26c0.1-0.1,0.16-0.21,0.2-0.33
			c0.03-0.12,0.05-0.22,0.05-0.32s-0.02-0.2-0.05-0.32c-0.03-0.12-0.1-0.23-0.2-0.33c-0.1-0.1-0.23-0.19-0.4-0.25
			c-0.17-0.07-0.4-0.1-0.67-0.1h-1.12V57.75z"/>
		<path d="M69.03,60.21c-0.19,0.28-0.42,0.48-0.69,0.61c-0.27,0.12-0.57,0.18-0.9,0.18c-0.28,0-0.54-0.05-0.76-0.14
			c-0.23-0.1-0.42-0.23-0.59-0.4c-0.16-0.17-0.29-0.38-0.38-0.61c-0.09-0.24-0.13-0.5-0.13-0.78c0-0.28,0.05-0.53,0.14-0.76
			c0.09-0.23,0.22-0.44,0.38-0.61c0.16-0.17,0.36-0.31,0.58-0.41c0.22-0.1,0.47-0.15,0.74-0.15c0.28,0,0.53,0.05,0.74,0.15
			c0.22,0.1,0.4,0.23,0.54,0.39c0.15,0.16,0.26,0.35,0.33,0.55c0.07,0.21,0.11,0.42,0.11,0.63v0.33h-3.09c0,0.1,0.02,0.23,0.06,0.39
			c0.04,0.16,0.11,0.31,0.22,0.46c0.11,0.15,0.25,0.28,0.43,0.38c0.18,0.11,0.41,0.16,0.69,0.16c0.24,0,0.48-0.06,0.71-0.18
			c0.23-0.12,0.4-0.28,0.53-0.48L69.03,60.21z M68.66,58.75c0-0.16-0.03-0.32-0.1-0.46c-0.07-0.14-0.16-0.27-0.27-0.38
			c-0.11-0.11-0.25-0.2-0.41-0.26c-0.16-0.06-0.32-0.1-0.5-0.1c-0.26,0-0.48,0.05-0.65,0.16c-0.17,0.11-0.31,0.23-0.41,0.37
			c-0.1,0.14-0.17,0.27-0.22,0.4c-0.04,0.13-0.06,0.22-0.06,0.27H68.66z"/>
		<path d="M70.17,55.77c0-0.1,0.03-0.19,0.1-0.25c0.07-0.07,0.15-0.1,0.26-0.1c0.1,0,0.19,0.03,0.25,0.1
			c0.07,0.07,0.1,0.15,0.1,0.25c0,0.1-0.03,0.19-0.1,0.26c-0.07,0.07-0.15,0.1-0.25,0.1c-0.1,0-0.19-0.03-0.26-0.1
			C70.2,55.95,70.17,55.87,70.17,55.77z M70.29,57.22h0.48v3.68h-0.48V57.22z"/>
		<path d="M72.12,58.26c0-0.07,0-0.15-0.01-0.25c-0.01-0.1-0.01-0.2-0.01-0.3c0-0.1-0.01-0.2-0.01-0.28
			c-0.01-0.09-0.01-0.16-0.01-0.2h0.48c0.01,0.14,0.01,0.27,0.01,0.4c0,0.13,0.01,0.21,0.02,0.25h0.02c0.1-0.2,0.26-0.38,0.48-0.52
			c0.22-0.15,0.48-0.22,0.78-0.22c0.29,0,0.52,0.05,0.7,0.14c0.18,0.09,0.32,0.21,0.43,0.35c0.1,0.15,0.18,0.31,0.22,0.51
			c0.04,0.19,0.06,0.39,0.06,0.59v2.19H74.8v-2.17c0-0.15-0.01-0.29-0.04-0.43c-0.03-0.14-0.07-0.27-0.14-0.38
			c-0.07-0.11-0.16-0.2-0.28-0.27c-0.12-0.07-0.28-0.1-0.47-0.1c-0.17,0-0.34,0.03-0.5,0.09c-0.16,0.06-0.29,0.15-0.41,0.28
			c-0.11,0.12-0.2,0.28-0.27,0.47c-0.07,0.19-0.1,0.41-0.1,0.67v1.84h-0.48V58.26z"/>
		<path d="M76.82,57.66h-0.76v-0.43h0.76v-1.2c0-0.24,0.04-0.44,0.11-0.59s0.16-0.28,0.27-0.38c0.11-0.1,0.22-0.16,0.35-0.2
			c0.13-0.04,0.25-0.06,0.37-0.06c0.22,0,0.41,0.03,0.55,0.1l-0.1,0.41c-0.11-0.05-0.25-0.08-0.43-0.08c-0.43,0-0.65,0.33-0.65,0.98
			v1.03h0.86v0.43H77.3v3.25h-0.48V57.66z"/>
		<path d="M78.7,59.07c0-0.28,0.05-0.54,0.14-0.78c0.1-0.24,0.23-0.44,0.4-0.61c0.17-0.17,0.37-0.31,0.61-0.4
			c0.24-0.1,0.5-0.14,0.78-0.14c0.28,0,0.54,0.05,0.78,0.14s0.44,0.23,0.61,0.4c0.17,0.17,0.31,0.38,0.4,0.61
			c0.1,0.24,0.14,0.5,0.14,0.78s-0.05,0.54-0.14,0.78c-0.1,0.24-0.23,0.44-0.4,0.61c-0.17,0.17-0.38,0.31-0.61,0.4
			S80.92,61,80.64,61c-0.28,0-0.54-0.05-0.78-0.14c-0.24-0.1-0.44-0.23-0.61-0.4c-0.17-0.17-0.3-0.38-0.4-0.61
			C78.75,59.61,78.7,59.35,78.7,59.07z M79.18,59.07c0,0.21,0.03,0.4,0.1,0.59c0.07,0.18,0.16,0.34,0.29,0.48
			c0.13,0.14,0.28,0.24,0.46,0.32c0.18,0.08,0.38,0.12,0.61,0.12c0.22,0,0.42-0.04,0.61-0.12c0.18-0.08,0.33-0.19,0.46-0.32
			s0.22-0.29,0.29-0.48c0.07-0.18,0.1-0.38,0.1-0.59s-0.03-0.4-0.1-0.59c-0.07-0.18-0.16-0.34-0.29-0.48s-0.28-0.24-0.46-0.32
			c-0.18-0.08-0.38-0.12-0.61-0.12c-0.22,0-0.42,0.04-0.61,0.12c-0.18,0.08-0.33,0.19-0.46,0.32c-0.13,0.14-0.22,0.29-0.29,0.48
			C79.21,58.66,79.18,58.86,79.18,59.07z"/>
		<path d="M83.64,58.26c0-0.07,0-0.15-0.01-0.25c-0.01-0.1-0.01-0.2-0.01-0.3c0-0.1-0.01-0.2-0.01-0.28
			c-0.01-0.09-0.01-0.16-0.01-0.2h0.48c0.01,0.14,0.01,0.27,0.01,0.4c0,0.13,0.01,0.21,0.02,0.25c0.12-0.22,0.28-0.4,0.47-0.53
			c0.19-0.14,0.42-0.21,0.7-0.21c0.05,0,0.09,0,0.14,0.01c0.05,0.01,0.09,0.02,0.14,0.03l-0.06,0.47c-0.06-0.02-0.13-0.03-0.18-0.03
			c-0.21,0-0.39,0.03-0.54,0.1c-0.15,0.07-0.28,0.16-0.37,0.28c-0.1,0.12-0.17,0.25-0.22,0.41c-0.05,0.16-0.07,0.33-0.07,0.51v2.01
			h-0.48V58.26z"/>
		<path d="M89.23,60.36c-0.18,0.22-0.38,0.38-0.61,0.48c-0.23,0.1-0.48,0.16-0.74,0.16c-0.28,0-0.54-0.05-0.78-0.14
			c-0.24-0.1-0.44-0.23-0.61-0.4c-0.17-0.17-0.3-0.38-0.4-0.61c-0.1-0.24-0.14-0.5-0.14-0.78s0.05-0.54,0.14-0.78
			c0.1-0.24,0.23-0.44,0.4-0.61c0.17-0.17,0.37-0.31,0.61-0.4c0.24-0.1,0.5-0.14,0.78-0.14c0.27,0,0.52,0.06,0.75,0.17
			c0.23,0.11,0.44,0.27,0.62,0.47l-0.38,0.29c-0.14-0.15-0.29-0.28-0.45-0.36c-0.16-0.09-0.34-0.13-0.53-0.13
			c-0.22,0-0.42,0.04-0.61,0.12c-0.18,0.08-0.33,0.19-0.46,0.32c-0.13,0.14-0.22,0.29-0.29,0.48c-0.07,0.18-0.1,0.38-0.1,0.59
			s0.03,0.4,0.1,0.59c0.07,0.18,0.16,0.34,0.29,0.48c0.13,0.14,0.28,0.24,0.46,0.32c0.18,0.08,0.38,0.12,0.61,0.12
			c0.2,0,0.39-0.05,0.55-0.14c0.17-0.09,0.31-0.22,0.43-0.37L89.23,60.36z"/>
		<path d="M93.23,60.21c-0.19,0.28-0.42,0.48-0.69,0.61c-0.27,0.12-0.57,0.18-0.9,0.18c-0.28,0-0.54-0.05-0.76-0.14
			s-0.42-0.23-0.59-0.4c-0.16-0.17-0.29-0.38-0.38-0.61c-0.09-0.24-0.13-0.5-0.13-0.78c0-0.28,0.05-0.53,0.14-0.76
			c0.09-0.23,0.22-0.44,0.38-0.61c0.16-0.17,0.36-0.31,0.58-0.41c0.22-0.1,0.47-0.15,0.74-0.15c0.28,0,0.53,0.05,0.74,0.15
			c0.22,0.1,0.4,0.23,0.54,0.39c0.15,0.16,0.26,0.35,0.33,0.55c0.07,0.21,0.11,0.42,0.11,0.63v0.33h-3.09c0,0.1,0.02,0.23,0.06,0.39
			s0.11,0.31,0.22,0.46c0.11,0.15,0.25,0.28,0.43,0.38c0.18,0.11,0.41,0.16,0.69,0.16c0.24,0,0.48-0.06,0.71-0.18
			c0.23-0.12,0.4-0.28,0.53-0.48L93.23,60.21z M92.86,58.75c0-0.16-0.03-0.32-0.1-0.46c-0.07-0.14-0.16-0.27-0.27-0.38
			c-0.11-0.11-0.25-0.2-0.41-0.26c-0.16-0.06-0.32-0.1-0.5-0.1c-0.26,0-0.48,0.05-0.65,0.16c-0.17,0.11-0.31,0.23-0.41,0.37
			c-0.1,0.14-0.17,0.27-0.22,0.4c-0.04,0.13-0.06,0.22-0.06,0.27H92.86z"/>
		<path d="M94.41,58.26c0-0.07,0-0.15-0.01-0.25c-0.01-0.1-0.01-0.2-0.01-0.3c0-0.1-0.01-0.2-0.01-0.28
			c-0.01-0.09-0.01-0.16-0.01-0.2h0.48c0.01,0.14,0.01,0.27,0.01,0.4c0,0.13,0.01,0.21,0.02,0.25h0.02c0.1-0.2,0.26-0.38,0.48-0.52
			c0.22-0.15,0.48-0.22,0.78-0.22c0.24,0,0.47,0.06,0.67,0.19c0.2,0.13,0.35,0.33,0.44,0.61c0.12-0.28,0.29-0.48,0.52-0.61
			s0.47-0.19,0.73-0.19c0.29,0,0.52,0.05,0.7,0.14c0.18,0.09,0.32,0.21,0.43,0.35c0.1,0.15,0.18,0.31,0.22,0.51
			c0.04,0.19,0.06,0.39,0.06,0.59v2.19h-0.48v-2.17c0-0.15-0.01-0.29-0.04-0.43c-0.03-0.14-0.07-0.27-0.14-0.38
			c-0.07-0.11-0.16-0.2-0.28-0.27c-0.12-0.07-0.28-0.1-0.47-0.1c-0.22,0-0.41,0.04-0.55,0.12c-0.14,0.08-0.26,0.19-0.34,0.31
			c-0.08,0.13-0.14,0.27-0.18,0.41c-0.03,0.15-0.05,0.29-0.05,0.42v2.07h-0.48v-2.21c0-0.34-0.06-0.61-0.19-0.82
			c-0.12-0.21-0.32-0.31-0.58-0.31c-0.17,0-0.34,0.03-0.5,0.09c-0.16,0.06-0.29,0.15-0.41,0.28c-0.11,0.12-0.2,0.28-0.27,0.47
			c-0.07,0.19-0.1,0.41-0.1,0.67v1.84h-0.48V58.26z"/>
		<path d="M104.45,60.21c-0.19,0.28-0.42,0.48-0.69,0.61c-0.27,0.12-0.57,0.18-0.9,0.18c-0.28,0-0.54-0.05-0.76-0.14
			s-0.42-0.23-0.59-0.4c-0.16-0.17-0.29-0.38-0.38-0.61c-0.09-0.24-0.13-0.5-0.13-0.78c0-0.28,0.05-0.53,0.14-0.76
			c0.09-0.23,0.22-0.44,0.38-0.61c0.16-0.17,0.36-0.31,0.58-0.41c0.22-0.1,0.47-0.15,0.74-0.15c0.28,0,0.53,0.05,0.74,0.15
			c0.22,0.1,0.4,0.23,0.54,0.39c0.15,0.16,0.26,0.35,0.33,0.55c0.07,0.21,0.11,0.42,0.11,0.63v0.33h-3.09c0,0.1,0.02,0.23,0.06,0.39
			s0.11,0.31,0.22,0.46c0.11,0.15,0.25,0.28,0.43,0.38c0.18,0.11,0.41,0.16,0.69,0.16c0.24,0,0.48-0.06,0.71-0.18
			c0.23-0.12,0.4-0.28,0.53-0.48L104.45,60.21z M104.08,58.75c0-0.16-0.03-0.32-0.1-0.46c-0.07-0.14-0.16-0.27-0.27-0.38
			c-0.11-0.11-0.25-0.2-0.41-0.26c-0.16-0.06-0.32-0.1-0.5-0.1c-0.26,0-0.48,0.05-0.65,0.16c-0.17,0.11-0.31,0.23-0.41,0.37
			c-0.1,0.14-0.17,0.27-0.22,0.4c-0.04,0.13-0.06,0.22-0.06,0.27H104.08z"/>
		<path d="M105.63,58.26c0-0.07,0-0.15-0.01-0.25c-0.01-0.1-0.01-0.2-0.01-0.3c0-0.1-0.01-0.2-0.01-0.28
			c-0.01-0.09-0.01-0.16-0.01-0.2h0.48c0.01,0.14,0.01,0.27,0.01,0.4c0,0.13,0.01,0.21,0.02,0.25h0.02c0.1-0.2,0.26-0.38,0.48-0.52
			c0.22-0.15,0.48-0.22,0.78-0.22c0.29,0,0.52,0.05,0.7,0.14c0.18,0.09,0.32,0.21,0.43,0.35c0.1,0.15,0.18,0.31,0.22,0.51
			c0.04,0.19,0.06,0.39,0.06,0.59v2.19h-0.48v-2.17c0-0.15-0.01-0.29-0.04-0.43c-0.03-0.14-0.07-0.27-0.14-0.38
			c-0.07-0.11-0.16-0.2-0.28-0.27c-0.12-0.07-0.28-0.1-0.47-0.1c-0.17,0-0.34,0.03-0.5,0.09c-0.16,0.06-0.29,0.15-0.41,0.28
			c-0.11,0.12-0.2,0.28-0.27,0.47c-0.07,0.19-0.1,0.41-0.1,0.67v1.84h-0.48V58.26z"/>
		<path d="M111.86,57.66h-1.05v2.4c0,0.16,0.04,0.29,0.14,0.38c0.09,0.09,0.22,0.14,0.37,0.14c0.09,0,0.18-0.01,0.27-0.04
			c0.09-0.02,0.18-0.05,0.27-0.09l0.04,0.43c-0.09,0.03-0.19,0.06-0.31,0.09c-0.12,0.03-0.22,0.04-0.31,0.04
			c-0.17,0-0.32-0.03-0.44-0.08c-0.12-0.05-0.22-0.12-0.29-0.2c-0.07-0.08-0.13-0.18-0.16-0.3s-0.05-0.24-0.05-0.37v-2.4h-0.8v-0.43
			h0.8v-1.06h0.48v1.06h1.05V57.66z"/>
		<path d="M114.91,55.27h0.53v5.16h2.63v0.48h-3.15V55.27z"/>
		<path d="M122.01,60.21c-0.19,0.28-0.42,0.48-0.69,0.61c-0.27,0.12-0.57,0.18-0.9,0.18c-0.28,0-0.54-0.05-0.76-0.14
			s-0.42-0.23-0.59-0.4c-0.16-0.17-0.29-0.38-0.38-0.61c-0.09-0.24-0.13-0.5-0.13-0.78c0-0.28,0.05-0.53,0.14-0.76
			c0.09-0.23,0.22-0.44,0.38-0.61c0.16-0.17,0.36-0.31,0.58-0.41s0.47-0.15,0.74-0.15c0.28,0,0.53,0.05,0.74,0.15
			c0.22,0.1,0.4,0.23,0.54,0.39c0.15,0.16,0.26,0.35,0.33,0.55c0.07,0.21,0.11,0.42,0.11,0.63v0.33h-3.09c0,0.1,0.02,0.23,0.06,0.39
			s0.11,0.31,0.22,0.46c0.11,0.15,0.25,0.28,0.43,0.38c0.18,0.11,0.41,0.16,0.69,0.16c0.24,0,0.48-0.06,0.71-0.18
			c0.23-0.12,0.4-0.28,0.53-0.48L122.01,60.21z M121.65,58.75c0-0.16-0.03-0.32-0.1-0.46c-0.07-0.14-0.16-0.27-0.27-0.38
			c-0.11-0.11-0.25-0.2-0.41-0.26c-0.16-0.06-0.32-0.1-0.5-0.1c-0.26,0-0.48,0.05-0.65,0.16c-0.17,0.11-0.31,0.23-0.41,0.37
			c-0.1,0.14-0.17,0.27-0.22,0.4c-0.04,0.13-0.06,0.22-0.06,0.27H121.65z"/>
		<path d="M126.05,59.36c0,0.18,0,0.34,0,0.49c0,0.14,0.01,0.28,0.01,0.4c0.01,0.12,0.01,0.24,0.02,0.34
			c0.01,0.11,0.02,0.21,0.04,0.32h-0.45c-0.03-0.18-0.05-0.38-0.05-0.6h-0.02c-0.14,0.24-0.31,0.41-0.51,0.53
			c-0.2,0.11-0.46,0.17-0.78,0.17c-0.16,0-0.32-0.02-0.47-0.06c-0.15-0.04-0.29-0.1-0.41-0.19c-0.12-0.09-0.22-0.2-0.3-0.34
			c-0.08-0.14-0.12-0.31-0.12-0.5c0-0.28,0.07-0.5,0.22-0.67c0.14-0.16,0.32-0.29,0.53-0.37c0.21-0.08,0.43-0.14,0.67-0.16
			s0.44-0.04,0.63-0.04h0.56v-0.22c0-0.32-0.1-0.55-0.29-0.68c-0.2-0.14-0.44-0.21-0.74-0.21c-0.42,0-0.8,0.14-1.12,0.41l-0.28-0.33
			c0.18-0.17,0.39-0.3,0.65-0.39c0.26-0.09,0.51-0.13,0.75-0.13c0.45,0,0.8,0.1,1.07,0.31c0.27,0.21,0.4,0.55,0.4,1.02V59.36z
			 M125.09,59.06c-0.2,0-0.4,0.01-0.59,0.04c-0.19,0.03-0.36,0.07-0.51,0.14c-0.15,0.06-0.27,0.15-0.36,0.26
			c-0.09,0.11-0.14,0.24-0.14,0.4c0,0.11,0.02,0.21,0.08,0.3c0.05,0.09,0.12,0.16,0.2,0.22c0.08,0.06,0.17,0.1,0.27,0.13
			c0.1,0.03,0.2,0.04,0.3,0.04c0.26,0,0.46-0.04,0.63-0.11c0.16-0.07,0.3-0.17,0.39-0.29c0.1-0.12,0.17-0.25,0.2-0.41
			c0.04-0.15,0.06-0.3,0.06-0.46v-0.25H125.09z"/>
		<path d="M127.33,58.26c0-0.07,0-0.15-0.01-0.25c-0.01-0.1-0.01-0.2-0.01-0.3c0-0.1-0.01-0.2-0.01-0.28
			c-0.01-0.09-0.01-0.16-0.01-0.2h0.48c0.01,0.14,0.01,0.27,0.01,0.4c0,0.13,0.01,0.21,0.02,0.25c0.12-0.22,0.28-0.4,0.47-0.53
			c0.19-0.14,0.42-0.21,0.7-0.21c0.05,0,0.09,0,0.14,0.01c0.05,0.01,0.09,0.02,0.14,0.03l-0.06,0.47c-0.06-0.02-0.13-0.03-0.18-0.03
			c-0.21,0-0.39,0.03-0.54,0.1c-0.15,0.07-0.28,0.16-0.37,0.28c-0.1,0.12-0.17,0.25-0.22,0.41c-0.05,0.16-0.07,0.33-0.07,0.51v2.01
			h-0.48V58.26z"/>
		<path d="M129.98,58.26c0-0.07,0-0.15-0.01-0.25c-0.01-0.1-0.01-0.2-0.01-0.3c0-0.1-0.01-0.2-0.01-0.28
			c-0.01-0.09-0.01-0.16-0.01-0.2h0.48c0.01,0.14,0.01,0.27,0.01,0.4c0,0.13,0.01,0.21,0.02,0.25h0.02c0.1-0.2,0.26-0.38,0.48-0.52
			c0.22-0.15,0.48-0.22,0.78-0.22c0.29,0,0.52,0.05,0.7,0.14c0.18,0.09,0.32,0.21,0.43,0.35c0.1,0.15,0.18,0.31,0.22,0.51
			c0.04,0.19,0.06,0.39,0.06,0.59v2.19h-0.48v-2.17c0-0.15-0.01-0.29-0.04-0.43c-0.03-0.14-0.07-0.27-0.14-0.38
			c-0.07-0.11-0.16-0.2-0.28-0.27c-0.12-0.07-0.28-0.1-0.47-0.1c-0.17,0-0.34,0.03-0.5,0.09c-0.16,0.06-0.29,0.15-0.41,0.28
			c-0.11,0.12-0.2,0.28-0.27,0.47c-0.07,0.19-0.1,0.41-0.1,0.67v1.84h-0.48V58.26z"/>
		<path d="M134.37,55.77c0-0.1,0.03-0.19,0.1-0.25c0.07-0.07,0.15-0.1,0.26-0.1c0.1,0,0.19,0.03,0.25,0.1
			c0.07,0.07,0.1,0.15,0.1,0.25c0,0.1-0.03,0.19-0.1,0.26c-0.07,0.07-0.15,0.1-0.25,0.1c-0.1,0-0.19-0.03-0.26-0.1
			C134.4,55.95,134.37,55.87,134.37,55.77z M134.49,57.22h0.48v3.68h-0.48V57.22z"/>
		<path d="M136.32,58.26c0-0.07,0-0.15-0.01-0.25c-0.01-0.1-0.01-0.2-0.01-0.3c0-0.1-0.01-0.2-0.01-0.28
			c-0.01-0.09-0.01-0.16-0.01-0.2h0.48c0.01,0.14,0.01,0.27,0.01,0.4c0,0.13,0.01,0.21,0.02,0.25h0.02c0.1-0.2,0.26-0.38,0.48-0.52
			c0.22-0.15,0.48-0.22,0.78-0.22c0.29,0,0.52,0.05,0.7,0.14c0.18,0.09,0.32,0.21,0.43,0.35c0.1,0.15,0.18,0.31,0.22,0.51
			c0.04,0.19,0.06,0.39,0.06,0.59v2.19H139v-2.17c0-0.15-0.01-0.29-0.04-0.43c-0.03-0.14-0.07-0.27-0.14-0.38
			c-0.07-0.11-0.16-0.2-0.28-0.27c-0.12-0.07-0.28-0.1-0.47-0.1c-0.17,0-0.34,0.03-0.5,0.09c-0.16,0.06-0.29,0.15-0.41,0.28
			c-0.11,0.12-0.2,0.28-0.27,0.47c-0.07,0.19-0.1,0.41-0.1,0.67v1.84h-0.48V58.26z"/>
		<path d="M144.44,60.67c0,0.46-0.07,0.83-0.2,1.11s-0.3,0.5-0.5,0.65c-0.2,0.15-0.41,0.26-0.64,0.31
			c-0.23,0.05-0.44,0.08-0.62,0.08c-0.19,0-0.37-0.02-0.55-0.05c-0.18-0.03-0.35-0.08-0.51-0.15c-0.16-0.07-0.3-0.15-0.43-0.24
			c-0.13-0.1-0.24-0.2-0.34-0.33l0.37-0.35c0.17,0.24,0.38,0.41,0.64,0.53c0.25,0.11,0.53,0.17,0.81,0.17c0.24,0,0.45-0.03,0.62-0.1
			c0.17-0.06,0.31-0.15,0.41-0.25c0.11-0.1,0.19-0.22,0.26-0.34c0.06-0.12,0.11-0.25,0.14-0.37c0.03-0.13,0.05-0.24,0.05-0.35
			c0.01-0.11,0.01-0.2,0.01-0.27v-0.51h-0.02c-0.14,0.22-0.33,0.4-0.56,0.53c-0.24,0.13-0.51,0.19-0.83,0.19
			c-0.27,0-0.53-0.05-0.76-0.15c-0.24-0.1-0.45-0.23-0.63-0.41c-0.18-0.17-0.32-0.37-0.42-0.6s-0.16-0.47-0.16-0.73
			s0.05-0.5,0.16-0.73c0.1-0.23,0.24-0.43,0.42-0.6c0.18-0.17,0.39-0.31,0.63-0.41c0.24-0.1,0.49-0.15,0.76-0.15
			c0.32,0,0.6,0.06,0.83,0.19c0.24,0.13,0.42,0.3,0.56,0.53h0.02v-0.62h0.48V60.67z M143.98,59.02c0-0.2-0.04-0.39-0.12-0.57
			c-0.08-0.18-0.18-0.33-0.31-0.46c-0.13-0.13-0.28-0.23-0.46-0.31c-0.18-0.08-0.37-0.12-0.57-0.12s-0.39,0.04-0.57,0.12
			c-0.18,0.08-0.33,0.18-0.46,0.31c-0.13,0.13-0.23,0.28-0.31,0.46c-0.08,0.18-0.12,0.37-0.12,0.57c0,0.2,0.04,0.39,0.12,0.57
			c0.08,0.18,0.18,0.33,0.31,0.46c0.13,0.13,0.28,0.23,0.46,0.31c0.18,0.08,0.37,0.12,0.57,0.12s0.39-0.04,0.57-0.12
			c0.18-0.08,0.33-0.18,0.46-0.31c0.13-0.13,0.23-0.28,0.31-0.46C143.94,59.41,143.98,59.22,143.98,59.02z"/>
	</g>
</g>
</svg>
